<mxfile host="app.diagrams.net" modified="2022-10-30T16:39:06.470Z" agent="5.0 (Windows NT 10.0; Win64; x64) AppleWebKit/537.36 (KHTML, like Gecko) Chrome/106.0.0.0 Safari/537.36" etag="0gAobkwnxxYmDznTS7Pq" version="20.5.1" type="github">
  <diagram id="C5RBs43oDa-KdzZeNtuy" name="Diagrama UML">
    <mxGraphModel dx="1108" dy="920" grid="0" gridSize="10" guides="1" tooltips="1" connect="1" arrows="1" fold="1" page="0" pageScale="1" pageWidth="3000" pageHeight="2200" background="none" math="0" shadow="0">
      <root>
        <mxCell id="WIyWlLk6GJQsqaUBKTNV-0" />
        <mxCell id="WIyWlLk6GJQsqaUBKTNV-1" parent="WIyWlLk6GJQsqaUBKTNV-0" />
        <mxCell id="3wVNMFGkU4_Ji0onx0FX-9" style="edgeStyle=orthogonalEdgeStyle;rounded=0;orthogonalLoop=1;jettySize=auto;html=1;endArrow=diamondThin;endFill=0;endSize=18;entryX=0.999;entryY=0.664;entryDx=0;entryDy=0;entryPerimeter=0;" parent="WIyWlLk6GJQsqaUBKTNV-1" source="zkfFHV4jXpPFQw0GAbJ--0" target="7kLCC5m1ncn1rMBGexYA-43" edge="1">
          <mxGeometry relative="1" as="geometry">
            <Array as="points" />
          </mxGeometry>
        </mxCell>
        <mxCell id="zkfFHV4jXpPFQw0GAbJ--0" value="Usuario" style="swimlane;fontStyle=0;align=center;verticalAlign=top;childLayout=stackLayout;horizontal=1;startSize=26;horizontalStack=0;resizeParent=1;resizeLast=0;collapsible=1;marginBottom=0;rounded=0;shadow=0;strokeWidth=1;" parent="WIyWlLk6GJQsqaUBKTNV-1" vertex="1">
          <mxGeometry x="2041" y="246" width="277" height="164" as="geometry">
            <mxRectangle x="230" y="140" width="160" height="26" as="alternateBounds" />
          </mxGeometry>
        </mxCell>
        <mxCell id="vBj9m2bGYhIgA5voDM-1-0" value="- nome [ string ]&amp;nbsp;&amp;lt;&amp;lt; get/set &amp;gt;&amp;gt;" style="text;html=1;resizable=0;autosize=1;align=left;verticalAlign=middle;points=[];fillColor=none;strokeColor=none;rounded=0;" parent="zkfFHV4jXpPFQw0GAbJ--0" vertex="1">
          <mxGeometry y="26" width="277" height="26" as="geometry" />
        </mxCell>
        <mxCell id="vBj9m2bGYhIgA5voDM-1-1" value="- email [ string ] &amp;lt;&amp;lt; get/set &amp;gt;&amp;gt;" style="text;html=1;resizable=0;autosize=1;align=left;verticalAlign=middle;points=[];fillColor=none;strokeColor=none;rounded=0;" parent="zkfFHV4jXpPFQw0GAbJ--0" vertex="1">
          <mxGeometry y="52" width="277" height="26" as="geometry" />
        </mxCell>
        <mxCell id="yx7stbrxpLooVDBRRGh_-1" value="- cpf/cnpj [ int ] &amp;lt;&amp;lt; get/set &amp;gt;&amp;gt;" style="text;html=1;resizable=0;autosize=1;align=left;verticalAlign=middle;points=[];fillColor=none;strokeColor=none;rounded=0;" parent="zkfFHV4jXpPFQw0GAbJ--0" vertex="1">
          <mxGeometry y="78" width="277" height="26" as="geometry" />
        </mxCell>
        <mxCell id="7kLCC5m1ncn1rMBGexYA-38" value="- senha [ string ] &amp;lt;&amp;lt; get/set &amp;gt;&amp;gt;" style="text;html=1;resizable=0;autosize=1;align=left;verticalAlign=middle;points=[];fillColor=none;strokeColor=none;rounded=0;" parent="zkfFHV4jXpPFQw0GAbJ--0" vertex="1">
          <mxGeometry y="104" width="277" height="26" as="geometry" />
        </mxCell>
        <mxCell id="M2em0EXgHuWA70PSRnWb-28" value="- permissoes [ vector&amp;lt;Permissao&amp;gt; ] &amp;lt;&amp;lt; get/set&amp;gt;&amp;gt;" style="text;html=1;resizable=0;autosize=1;align=left;verticalAlign=middle;points=[];fillColor=none;strokeColor=none;rounded=0;" parent="zkfFHV4jXpPFQw0GAbJ--0" vertex="1">
          <mxGeometry y="130" width="277" height="26" as="geometry" />
        </mxCell>
        <mxCell id="zkfFHV4jXpPFQw0GAbJ--4" value="" style="line;html=1;strokeWidth=1;align=left;verticalAlign=middle;spacingTop=-1;spacingLeft=3;spacingRight=3;rotatable=0;labelPosition=right;points=[];portConstraint=eastwest;" parent="zkfFHV4jXpPFQw0GAbJ--0" vertex="1">
          <mxGeometry y="156" width="277" height="8" as="geometry" />
        </mxCell>
        <mxCell id="zkfFHV4jXpPFQw0GAbJ--6" value="Funcionario" style="swimlane;fontStyle=0;align=center;verticalAlign=top;childLayout=stackLayout;horizontal=1;startSize=26;horizontalStack=0;resizeParent=1;resizeLast=0;collapsible=1;marginBottom=0;rounded=0;shadow=0;strokeWidth=1;" parent="WIyWlLk6GJQsqaUBKTNV-1" vertex="1">
          <mxGeometry x="1836" y="529" width="272" height="268" as="geometry">
            <mxRectangle x="130" y="380" width="160" height="26" as="alternateBounds" />
          </mxGeometry>
        </mxCell>
        <mxCell id="zkfFHV4jXpPFQw0GAbJ--8" value="- endereco [ string ] &lt;&lt; get/set &gt;&gt;" style="text;align=left;verticalAlign=top;spacingLeft=4;spacingRight=4;overflow=hidden;rotatable=0;points=[[0,0.5],[1,0.5]];portConstraint=eastwest;rounded=0;shadow=0;html=0;fillColor=none;" parent="zkfFHV4jXpPFQw0GAbJ--6" vertex="1">
          <mxGeometry y="26" width="272" height="26" as="geometry" />
        </mxCell>
        <mxCell id="yx7stbrxpLooVDBRRGh_-7" value="- cargo [ Cargo ] &amp;lt;&amp;lt; get/set &amp;gt;&amp;gt;" style="text;html=1;resizable=0;autosize=1;align=left;verticalAlign=middle;points=[];fillColor=none;strokeColor=none;rounded=0;" parent="zkfFHV4jXpPFQw0GAbJ--6" vertex="1">
          <mxGeometry y="52" width="272" height="26" as="geometry" />
        </mxCell>
        <mxCell id="yx7stbrxpLooVDBRRGh_-11" value="- departamento [ Departamento ] &amp;lt;&amp;lt; get/set &amp;gt;&amp;gt;" style="text;html=1;resizable=0;autosize=1;align=left;verticalAlign=middle;points=[];fillColor=none;strokeColor=none;rounded=0;" parent="zkfFHV4jXpPFQw0GAbJ--6" vertex="1">
          <mxGeometry y="78" width="272" height="26" as="geometry" />
        </mxCell>
        <mxCell id="yx7stbrxpLooVDBRRGh_-56" value="- historico [ vector ] &amp;lt;&amp;lt; get &amp;gt;&amp;gt;" style="text;html=1;resizable=0;autosize=1;align=left;verticalAlign=middle;points=[];fillColor=none;strokeColor=none;rounded=0;" parent="zkfFHV4jXpPFQw0GAbJ--6" vertex="1">
          <mxGeometry y="104" width="272" height="26" as="geometry" />
        </mxCell>
        <mxCell id="mWcNmfGCxx20jXf8nt0t-0" value="- matricula [ unsigned int ] &amp;lt;&amp;lt; get/set &amp;gt;&amp;gt;" style="text;html=1;resizable=0;autosize=1;align=left;verticalAlign=middle;points=[];fillColor=none;strokeColor=none;rounded=0;" parent="zkfFHV4jXpPFQw0GAbJ--6" vertex="1">
          <mxGeometry y="130" width="272" height="26" as="geometry" />
        </mxCell>
        <mxCell id="mWcNmfGCxx20jXf8nt0t-25" value="- salarios [ vector ] &amp;lt;&amp;lt; get &amp;gt;&amp;gt;" style="text;html=1;resizable=0;autosize=1;align=left;verticalAlign=middle;points=[];fillColor=none;strokeColor=none;rounded=0;" parent="zkfFHV4jXpPFQw0GAbJ--6" vertex="1">
          <mxGeometry y="156" width="272" height="26" as="geometry" />
        </mxCell>
        <mxCell id="zkfFHV4jXpPFQw0GAbJ--9" value="" style="line;html=1;strokeWidth=1;align=left;verticalAlign=middle;spacingTop=-1;spacingLeft=3;spacingRight=3;rotatable=0;labelPosition=right;points=[];portConstraint=eastwest;" parent="zkfFHV4jXpPFQw0GAbJ--6" vertex="1">
          <mxGeometry y="182" width="272" height="8" as="geometry" />
        </mxCell>
        <mxCell id="yx7stbrxpLooVDBRRGh_-60" value="+ [ void ] addHistorico()" style="text;html=1;resizable=0;autosize=1;align=left;verticalAlign=middle;points=[];fillColor=none;strokeColor=none;rounded=0;" parent="zkfFHV4jXpPFQw0GAbJ--6" vertex="1">
          <mxGeometry y="190" width="272" height="26" as="geometry" />
        </mxCell>
        <mxCell id="VAJZHnrrX_qjfKX5aMCy-2" value="+ [ void ] novoSalario()" style="text;html=1;resizable=0;autosize=1;align=left;verticalAlign=middle;points=[];fillColor=none;strokeColor=none;rounded=0;" parent="zkfFHV4jXpPFQw0GAbJ--6" vertex="1">
          <mxGeometry y="216" width="272" height="26" as="geometry" />
        </mxCell>
        <mxCell id="zkfFHV4jXpPFQw0GAbJ--12" value="" style="endArrow=block;endSize=10;endFill=0;shadow=0;strokeWidth=1;rounded=0;edgeStyle=elbowEdgeStyle;elbow=vertical;" parent="WIyWlLk6GJQsqaUBKTNV-1" target="zkfFHV4jXpPFQw0GAbJ--0" edge="1">
          <mxGeometry width="160" relative="1" as="geometry">
            <mxPoint x="1967" y="528" as="sourcePoint" />
            <mxPoint x="1927" y="510" as="targetPoint" />
            <Array as="points">
              <mxPoint x="2102" y="480" />
              <mxPoint x="2102" y="489" />
              <mxPoint x="1950" y="598" />
              <mxPoint x="1883" y="598" />
              <mxPoint x="1993" y="522" />
              <mxPoint x="1885" y="663" />
              <mxPoint x="1953" y="643" />
              <mxPoint x="1880" y="684" />
              <mxPoint x="1917" y="670" />
              <mxPoint x="1951" y="628" />
              <mxPoint x="2035" y="593" />
              <mxPoint x="2048" y="601" />
            </Array>
          </mxGeometry>
        </mxCell>
        <mxCell id="zkfFHV4jXpPFQw0GAbJ--13" value="Cliente" style="swimlane;fontStyle=0;align=center;verticalAlign=top;childLayout=stackLayout;horizontal=1;startSize=26;horizontalStack=0;resizeParent=1;resizeLast=0;collapsible=1;marginBottom=0;rounded=0;shadow=0;strokeWidth=1;" parent="WIyWlLk6GJQsqaUBKTNV-1" vertex="1">
          <mxGeometry x="2265" y="529" width="513" height="166" as="geometry">
            <mxRectangle x="340" y="380" width="170" height="26" as="alternateBounds" />
          </mxGeometry>
        </mxCell>
        <mxCell id="zkfFHV4jXpPFQw0GAbJ--14" value="- tipoPessoa [ enum(&#39;PF&#39; | &#39;PJ&#39;) ] &lt;&lt; get/set &gt;&gt;" style="text;align=left;verticalAlign=top;spacingLeft=4;spacingRight=4;overflow=hidden;rotatable=0;points=[[0,0.5],[1,0.5]];portConstraint=eastwest;" parent="zkfFHV4jXpPFQw0GAbJ--13" vertex="1">
          <mxGeometry y="26" width="513" height="26" as="geometry" />
        </mxCell>
        <mxCell id="yx7stbrxpLooVDBRRGh_-13" value="- telefone [ unsigned int ] &lt;&lt; get/set &gt;&gt;" style="text;align=left;verticalAlign=top;spacingLeft=4;spacingRight=4;overflow=hidden;rotatable=0;points=[[0,0.5],[1,0.5]];portConstraint=eastwest;rounded=0;shadow=0;html=0;" parent="zkfFHV4jXpPFQw0GAbJ--13" vertex="1">
          <mxGeometry y="52" width="513" height="26" as="geometry" />
        </mxCell>
        <mxCell id="zkfFHV4jXpPFQw0GAbJ--15" value="" style="line;html=1;strokeWidth=1;align=left;verticalAlign=middle;spacingTop=-1;spacingLeft=3;spacingRight=3;rotatable=0;labelPosition=right;points=[];portConstraint=eastwest;" parent="zkfFHV4jXpPFQw0GAbJ--13" vertex="1">
          <mxGeometry y="78" width="513" height="8" as="geometry" />
        </mxCell>
        <mxCell id="eWod7wNQgIvaONbQWn_n-7" value="+ [ void ] compra(orcamento [ Orcamento ], tipoPagamento [ string ], forma [ string ])" style="text;align=left;verticalAlign=top;spacingLeft=4;spacingRight=4;overflow=hidden;rotatable=0;points=[[0,0.5],[1,0.5]];portConstraint=eastwest;rounded=0;shadow=0;html=0;" parent="zkfFHV4jXpPFQw0GAbJ--13" vertex="1">
          <mxGeometry y="86" width="513" height="33" as="geometry" />
        </mxCell>
        <mxCell id="YGI2oginyyZpjjxHaFJb-47" value="+ [ Orcamento ] solicitaOrcamento (produtoDesejado [ map &lt;idProduto int&gt;&lt;quantidade int&gt; ],&#xa;cliente [ string ], cpfCnpf [ int ], email [ string ] )" style="text;align=left;verticalAlign=top;spacingLeft=4;spacingRight=4;overflow=hidden;rotatable=0;points=[[0,0.5],[1,0.5]];portConstraint=eastwest;rounded=0;shadow=0;html=0;" parent="zkfFHV4jXpPFQw0GAbJ--13" vertex="1">
          <mxGeometry y="119" width="513" height="34" as="geometry" />
        </mxCell>
        <mxCell id="zkfFHV4jXpPFQw0GAbJ--16" value="" style="endArrow=block;endSize=10;endFill=0;shadow=0;strokeWidth=1;rounded=0;edgeStyle=elbowEdgeStyle;elbow=vertical;entryX=0.595;entryY=0.875;entryDx=0;entryDy=0;entryPerimeter=0;" parent="WIyWlLk6GJQsqaUBKTNV-1" source="zkfFHV4jXpPFQw0GAbJ--13" target="zkfFHV4jXpPFQw0GAbJ--4" edge="1">
          <mxGeometry width="160" relative="1" as="geometry">
            <mxPoint x="1937" y="680" as="sourcePoint" />
            <mxPoint x="2208" y="418" as="targetPoint" />
            <Array as="points">
              <mxPoint x="2529" y="485" />
              <mxPoint x="2293" y="480" />
              <mxPoint x="2300" y="474" />
              <mxPoint x="2309" y="500" />
              <mxPoint x="2245" y="483" />
              <mxPoint x="2246" y="550" />
              <mxPoint x="2184" y="554" />
              <mxPoint x="2161" y="597" />
              <mxPoint x="2107" y="550" />
              <mxPoint x="2197" y="665" />
              <mxPoint x="2158" y="643" />
            </Array>
          </mxGeometry>
        </mxCell>
        <mxCell id="mWcNmfGCxx20jXf8nt0t-1" value="Utils" style="swimlane;fontStyle=0;align=center;verticalAlign=top;childLayout=stackLayout;horizontal=1;startSize=26;horizontalStack=0;resizeParent=1;resizeLast=0;collapsible=1;marginBottom=0;rounded=0;shadow=0;strokeWidth=1;" parent="WIyWlLk6GJQsqaUBKTNV-1" vertex="1">
          <mxGeometry x="2346" y="249" width="180" height="87" as="geometry">
            <mxRectangle x="340" y="380" width="170" height="26" as="alternateBounds" />
          </mxGeometry>
        </mxCell>
        <mxCell id="mWcNmfGCxx20jXf8nt0t-4" value="" style="line;html=1;strokeWidth=1;align=left;verticalAlign=middle;spacingTop=-1;spacingLeft=3;spacingRight=3;rotatable=0;labelPosition=right;points=[];portConstraint=eastwest;" parent="mWcNmfGCxx20jXf8nt0t-1" vertex="1">
          <mxGeometry y="26" width="180" height="8" as="geometry" />
        </mxCell>
        <mxCell id="mWcNmfGCxx20jXf8nt0t-6" value="+ verificaCPF()" style="text;html=1;resizable=0;autosize=1;align=left;verticalAlign=middle;points=[];fillColor=none;strokeColor=none;rounded=0;" parent="mWcNmfGCxx20jXf8nt0t-1" vertex="1">
          <mxGeometry y="34" width="180" height="26" as="geometry" />
        </mxCell>
        <mxCell id="mWcNmfGCxx20jXf8nt0t-7" value="+ verificaCNPJ()" style="text;html=1;resizable=0;autosize=1;align=left;verticalAlign=middle;points=[];fillColor=none;strokeColor=none;rounded=0;" parent="mWcNmfGCxx20jXf8nt0t-1" vertex="1">
          <mxGeometry y="60" width="180" height="26" as="geometry" />
        </mxCell>
        <mxCell id="3wVNMFGkU4_Ji0onx0FX-13" style="edgeStyle=orthogonalEdgeStyle;rounded=0;orthogonalLoop=1;jettySize=auto;html=1;entryX=1;entryY=0.5;entryDx=0;entryDy=0;endArrow=diamondThin;endFill=1;endSize=18;" parent="WIyWlLk6GJQsqaUBKTNV-1" source="vBj9m2bGYhIgA5voDM-1-13" target="7kLCC5m1ncn1rMBGexYA-3" edge="1">
          <mxGeometry relative="1" as="geometry" />
        </mxCell>
        <mxCell id="vBj9m2bGYhIgA5voDM-1-13" value="Cargo" style="swimlane;fontStyle=0;align=center;verticalAlign=top;childLayout=stackLayout;horizontal=1;startSize=26;horizontalStack=0;resizeParent=1;resizeLast=0;collapsible=1;marginBottom=0;rounded=0;shadow=0;strokeWidth=1;" parent="WIyWlLk6GJQsqaUBKTNV-1" vertex="1">
          <mxGeometry x="1360" y="492" width="247" height="87" as="geometry">
            <mxRectangle x="550" y="140" width="160" height="26" as="alternateBounds" />
          </mxGeometry>
        </mxCell>
        <mxCell id="vBj9m2bGYhIgA5voDM-1-14" value="- cargo [ string ] &lt;&lt; get/set &gt;&gt;" style="text;align=left;verticalAlign=top;spacingLeft=4;spacingRight=4;overflow=hidden;rotatable=0;points=[[0,0.5],[1,0.5]];portConstraint=eastwest;" parent="vBj9m2bGYhIgA5voDM-1-13" vertex="1">
          <mxGeometry y="26" width="247" height="26" as="geometry" />
        </mxCell>
        <mxCell id="vBj9m2bGYhIgA5voDM-1-16" value="" style="line;html=1;strokeWidth=1;align=left;verticalAlign=middle;spacingTop=-1;spacingLeft=3;spacingRight=3;rotatable=0;labelPosition=right;points=[];portConstraint=eastwest;" parent="vBj9m2bGYhIgA5voDM-1-13" vertex="1">
          <mxGeometry y="52" width="247" height="8" as="geometry" />
        </mxCell>
        <mxCell id="VAJZHnrrX_qjfKX5aMCy-3" value="+ [ void ] aplicaDissidio()" style="text;align=left;verticalAlign=top;spacingLeft=4;spacingRight=4;overflow=hidden;rotatable=0;points=[[0,0.5],[1,0.5]];portConstraint=eastwest;" parent="vBj9m2bGYhIgA5voDM-1-13" vertex="1">
          <mxGeometry y="60" width="247" height="26" as="geometry" />
        </mxCell>
        <mxCell id="3wVNMFGkU4_Ji0onx0FX-14" style="edgeStyle=orthogonalEdgeStyle;rounded=0;orthogonalLoop=1;jettySize=auto;html=1;endArrow=diamondThin;endFill=1;endSize=18;" parent="WIyWlLk6GJQsqaUBKTNV-1" source="vBj9m2bGYhIgA5voDM-1-19" target="QKy6g-BmtBENM2KowJZ9-1" edge="1">
          <mxGeometry relative="1" as="geometry">
            <Array as="points">
              <mxPoint x="1485" y="618" />
            </Array>
            <mxPoint x="1272" y="682" as="targetPoint" />
          </mxGeometry>
        </mxCell>
        <mxCell id="vBj9m2bGYhIgA5voDM-1-19" value="Departamento" style="swimlane;fontStyle=0;align=center;verticalAlign=top;childLayout=stackLayout;horizontal=1;startSize=26;horizontalStack=0;resizeParent=1;resizeLast=0;collapsible=1;marginBottom=0;rounded=0;shadow=0;strokeWidth=1;" parent="WIyWlLk6GJQsqaUBKTNV-1" vertex="1">
          <mxGeometry x="1360" y="643" width="250" height="77" as="geometry">
            <mxRectangle x="550" y="140" width="160" height="26" as="alternateBounds" />
          </mxGeometry>
        </mxCell>
        <mxCell id="vBj9m2bGYhIgA5voDM-1-20" value="- departamento [ string ] &lt;&lt; get/set &gt;&gt;" style="text;align=left;verticalAlign=top;spacingLeft=4;spacingRight=4;overflow=hidden;rotatable=0;points=[[0,0.5],[1,0.5]];portConstraint=eastwest;" parent="vBj9m2bGYhIgA5voDM-1-19" vertex="1">
          <mxGeometry y="26" width="250" height="26" as="geometry" />
        </mxCell>
        <mxCell id="vBj9m2bGYhIgA5voDM-1-21" value="" style="line;html=1;strokeWidth=1;align=left;verticalAlign=middle;spacingTop=-1;spacingLeft=3;spacingRight=3;rotatable=0;labelPosition=right;points=[];portConstraint=eastwest;" parent="vBj9m2bGYhIgA5voDM-1-19" vertex="1">
          <mxGeometry y="52" width="250" height="8" as="geometry" />
        </mxCell>
        <mxCell id="vBj9m2bGYhIgA5voDM-1-24" value="Historico" style="swimlane;fontStyle=0;align=center;verticalAlign=top;childLayout=stackLayout;horizontal=1;startSize=26;horizontalStack=0;resizeParent=1;resizeLast=0;collapsible=1;marginBottom=0;rounded=0;shadow=0;strokeWidth=1;" parent="WIyWlLk6GJQsqaUBKTNV-1" vertex="1">
          <mxGeometry x="1360" y="784" width="247" height="106" as="geometry">
            <mxRectangle x="550" y="140" width="160" height="26" as="alternateBounds" />
          </mxGeometry>
        </mxCell>
        <mxCell id="vBj9m2bGYhIgA5voDM-1-25" value="- data [ Data ] &lt;&lt; get/set &gt;&gt;" style="text;align=left;verticalAlign=top;spacingLeft=4;spacingRight=4;overflow=hidden;rotatable=0;points=[[0,0.5],[1,0.5]];portConstraint=eastwest;rounded=0;shadow=0;html=0;" parent="vBj9m2bGYhIgA5voDM-1-24" vertex="1">
          <mxGeometry y="26" width="247" height="26" as="geometry" />
        </mxCell>
        <mxCell id="vBj9m2bGYhIgA5voDM-1-26" value="- status [ string ] &lt;&lt; get/set &gt;&gt;" style="text;align=left;verticalAlign=top;spacingLeft=4;spacingRight=4;overflow=hidden;rotatable=0;points=[[0,0.5],[1,0.5]];portConstraint=eastwest;rounded=0;shadow=0;html=0;" parent="vBj9m2bGYhIgA5voDM-1-24" vertex="1">
          <mxGeometry y="52" width="247" height="26" as="geometry" />
        </mxCell>
        <mxCell id="vBj9m2bGYhIgA5voDM-1-27" value="" style="line;html=1;strokeWidth=1;align=left;verticalAlign=middle;spacingTop=-1;spacingLeft=3;spacingRight=3;rotatable=0;labelPosition=right;points=[];portConstraint=eastwest;" parent="vBj9m2bGYhIgA5voDM-1-24" vertex="1">
          <mxGeometry y="78" width="247" height="8" as="geometry" />
        </mxCell>
        <mxCell id="vBj9m2bGYhIgA5voDM-1-30" value="Salario" style="swimlane;fontStyle=0;align=center;verticalAlign=top;childLayout=stackLayout;horizontal=1;startSize=26;horizontalStack=0;resizeParent=1;resizeLast=0;collapsible=1;marginBottom=0;rounded=0;shadow=0;strokeWidth=1;" parent="WIyWlLk6GJQsqaUBKTNV-1" vertex="1">
          <mxGeometry x="1360" y="945" width="321" height="182" as="geometry">
            <mxRectangle x="340" y="380" width="170" height="26" as="alternateBounds" />
          </mxGeometry>
        </mxCell>
        <mxCell id="vBj9m2bGYhIgA5voDM-1-31" value="- salarioBase [ float ] &lt;&lt; get/set &gt;&gt;" style="text;align=left;verticalAlign=top;spacingLeft=4;spacingRight=4;overflow=hidden;rotatable=0;points=[[0,0.5],[1,0.5]];portConstraint=eastwest;" parent="vBj9m2bGYhIgA5voDM-1-30" vertex="1">
          <mxGeometry y="26" width="321" height="26" as="geometry" />
        </mxCell>
        <mxCell id="vBj9m2bGYhIgA5voDM-1-32" value="- variacaoSalario [ float ] &lt;&lt; get/set &gt;&gt;" style="text;align=left;verticalAlign=top;spacingLeft=4;spacingRight=4;overflow=hidden;rotatable=0;points=[[0,0.5],[1,0.5]];portConstraint=eastwest;rounded=0;shadow=0;html=0;" parent="vBj9m2bGYhIgA5voDM-1-30" vertex="1">
          <mxGeometry y="52" width="321" height="26" as="geometry" />
        </mxCell>
        <mxCell id="o2TB0ycGtMZ3YjSjIcyG-0" value="- percentualDissidio [ float ] &lt;&lt; get/set &gt;&gt;" style="text;align=left;verticalAlign=top;spacingLeft=4;spacingRight=4;overflow=hidden;rotatable=0;points=[[0,0.5],[1,0.5]];portConstraint=eastwest;rounded=0;shadow=0;html=0;" parent="vBj9m2bGYhIgA5voDM-1-30" vertex="1">
          <mxGeometry y="78" width="321" height="26" as="geometry" />
        </mxCell>
        <mxCell id="vBj9m2bGYhIgA5voDM-1-33" value="- dataVariacao [ Data ] &lt;&lt; get/set &gt;&gt;" style="text;align=left;verticalAlign=top;spacingLeft=4;spacingRight=4;overflow=hidden;rotatable=0;points=[[0,0.5],[1,0.5]];portConstraint=eastwest;rounded=0;shadow=0;html=0;" parent="vBj9m2bGYhIgA5voDM-1-30" vertex="1">
          <mxGeometry y="104" width="321" height="26" as="geometry" />
        </mxCell>
        <mxCell id="vBj9m2bGYhIgA5voDM-1-34" value="- tipoReajuste [ enum(&#39;Dissidio&#39; | &#39;Gerencia&#39;) ] &lt;&lt; get/set &gt;&gt;" style="text;align=left;verticalAlign=top;spacingLeft=4;spacingRight=4;overflow=hidden;rotatable=0;points=[[0,0.5],[1,0.5]];portConstraint=eastwest;rounded=0;shadow=0;html=0;" parent="vBj9m2bGYhIgA5voDM-1-30" vertex="1">
          <mxGeometry y="130" width="321" height="26" as="geometry" />
        </mxCell>
        <mxCell id="vBj9m2bGYhIgA5voDM-1-35" value="" style="line;html=1;strokeWidth=1;align=left;verticalAlign=middle;spacingTop=-1;spacingLeft=3;spacingRight=3;rotatable=0;labelPosition=right;points=[];portConstraint=eastwest;" parent="vBj9m2bGYhIgA5voDM-1-30" vertex="1">
          <mxGeometry y="156" width="321" height="8" as="geometry" />
        </mxCell>
        <mxCell id="vBj9m2bGYhIgA5voDM-1-40" style="edgeStyle=orthogonalEdgeStyle;rounded=0;orthogonalLoop=1;jettySize=auto;html=1;endArrow=diamondThin;endFill=0;startSize=6;endSize=18;" parent="WIyWlLk6GJQsqaUBKTNV-1" source="yx7stbrxpLooVDBRRGh_-7" edge="1">
          <mxGeometry relative="1" as="geometry">
            <mxPoint x="1607" y="550" as="targetPoint" />
            <Array as="points">
              <mxPoint x="1727" y="594" />
              <mxPoint x="1727" y="550" />
            </Array>
          </mxGeometry>
        </mxCell>
        <mxCell id="vBj9m2bGYhIgA5voDM-1-42" style="edgeStyle=orthogonalEdgeStyle;rounded=0;orthogonalLoop=1;jettySize=auto;html=1;endArrow=diamondThin;endFill=0;startSize=6;endSize=18;exitX=-0.013;exitY=0.476;exitDx=0;exitDy=0;exitPerimeter=0;entryX=1;entryY=0.5;entryDx=0;entryDy=0;" parent="WIyWlLk6GJQsqaUBKTNV-1" source="yx7stbrxpLooVDBRRGh_-56" target="vBj9m2bGYhIgA5voDM-1-20" edge="1">
          <mxGeometry relative="1" as="geometry">
            <Array as="points">
              <mxPoint x="1833" y="644" />
              <mxPoint x="1680" y="644" />
              <mxPoint x="1680" y="682" />
            </Array>
            <mxPoint x="1779" y="640" as="sourcePoint" />
            <mxPoint x="1669" y="649" as="targetPoint" />
          </mxGeometry>
        </mxCell>
        <mxCell id="vBj9m2bGYhIgA5voDM-1-43" style="edgeStyle=orthogonalEdgeStyle;rounded=0;orthogonalLoop=1;jettySize=auto;html=1;endArrow=none;endFill=0;startSize=16;endSize=18;exitX=-0.001;exitY=0.316;exitDx=0;exitDy=0;exitPerimeter=0;startArrow=diamondThin;startFill=1;" parent="WIyWlLk6GJQsqaUBKTNV-1" source="mWcNmfGCxx20jXf8nt0t-25" edge="1">
          <mxGeometry relative="1" as="geometry">
            <Array as="points">
              <mxPoint x="1705" y="693" />
              <mxPoint x="1705" y="836" />
            </Array>
            <mxPoint x="1782" y="784" as="sourcePoint" />
            <mxPoint x="1607" y="834" as="targetPoint" />
          </mxGeometry>
        </mxCell>
        <mxCell id="vBj9m2bGYhIgA5voDM-1-44" style="edgeStyle=orthogonalEdgeStyle;rounded=0;orthogonalLoop=1;jettySize=auto;html=1;endArrow=none;endFill=0;startSize=16;endSize=18;entryX=1;entryY=0.5;entryDx=0;entryDy=0;startArrow=diamondThin;startFill=1;" parent="WIyWlLk6GJQsqaUBKTNV-1" target="o2TB0ycGtMZ3YjSjIcyG-0" edge="1">
          <mxGeometry relative="1" as="geometry">
            <Array as="points">
              <mxPoint x="1775" y="743" />
              <mxPoint x="1775" y="1036" />
            </Array>
            <mxPoint x="1835" y="743" as="sourcePoint" />
            <mxPoint x="1766" y="1017" as="targetPoint" />
          </mxGeometry>
        </mxCell>
        <mxCell id="vBj9m2bGYhIgA5voDM-1-45" value="1" style="text;html=1;resizable=0;autosize=1;align=center;verticalAlign=middle;points=[];fillColor=none;strokeColor=none;rounded=0;fontSize=24;" parent="WIyWlLk6GJQsqaUBKTNV-1" vertex="1">
          <mxGeometry x="1610" y="506" width="31" height="41" as="geometry" />
        </mxCell>
        <mxCell id="vBj9m2bGYhIgA5voDM-1-46" value="0...*" style="text;html=1;resizable=0;autosize=1;align=center;verticalAlign=middle;points=[];fillColor=none;strokeColor=none;rounded=0;fontSize=24;" parent="WIyWlLk6GJQsqaUBKTNV-1" vertex="1">
          <mxGeometry x="1780" y="561" width="61" height="41" as="geometry" />
        </mxCell>
        <mxCell id="vBj9m2bGYhIgA5voDM-1-47" value="1" style="text;html=1;resizable=0;autosize=1;align=center;verticalAlign=middle;points=[];fillColor=none;strokeColor=none;rounded=0;fontSize=24;" parent="WIyWlLk6GJQsqaUBKTNV-1" vertex="1">
          <mxGeometry x="1805" y="654" width="31" height="41" as="geometry" />
        </mxCell>
        <mxCell id="vBj9m2bGYhIgA5voDM-1-48" value="0...*" style="text;html=1;resizable=0;autosize=1;align=center;verticalAlign=middle;points=[];fillColor=none;strokeColor=none;rounded=0;fontSize=24;" parent="WIyWlLk6GJQsqaUBKTNV-1" vertex="1">
          <mxGeometry x="1780" y="608" width="61" height="41" as="geometry" />
        </mxCell>
        <mxCell id="vBj9m2bGYhIgA5voDM-1-50" value="1...*" style="text;html=1;resizable=0;autosize=1;align=center;verticalAlign=middle;points=[];fillColor=none;strokeColor=none;rounded=0;fontSize=24;" parent="WIyWlLk6GJQsqaUBKTNV-1" vertex="1">
          <mxGeometry x="1600" y="801.86" width="61" height="41" as="geometry" />
        </mxCell>
        <mxCell id="vBj9m2bGYhIgA5voDM-1-51" value="1" style="text;html=1;resizable=0;autosize=1;align=center;verticalAlign=middle;points=[];fillColor=none;strokeColor=none;rounded=0;fontSize=24;" parent="WIyWlLk6GJQsqaUBKTNV-1" vertex="1">
          <mxGeometry x="1610" y="641.5" width="31" height="41" as="geometry" />
        </mxCell>
        <mxCell id="vBj9m2bGYhIgA5voDM-1-52" value="1" style="text;html=1;resizable=0;autosize=1;align=center;verticalAlign=middle;points=[];fillColor=none;strokeColor=none;rounded=0;fontSize=24;" parent="WIyWlLk6GJQsqaUBKTNV-1" vertex="1">
          <mxGeometry x="1799" y="704" width="31" height="41" as="geometry" />
        </mxCell>
        <mxCell id="vBj9m2bGYhIgA5voDM-1-53" value="1...*" style="text;html=1;resizable=0;autosize=1;align=center;verticalAlign=middle;points=[];fillColor=none;strokeColor=none;rounded=0;fontSize=24;" parent="WIyWlLk6GJQsqaUBKTNV-1" vertex="1">
          <mxGeometry x="1674" y="996" width="61" height="41" as="geometry" />
        </mxCell>
        <mxCell id="vBj9m2bGYhIgA5voDM-1-55" value="&lt;div style=&quot;&quot;&gt;&lt;span style=&quot;&quot;&gt;&lt;br&gt;&lt;/span&gt;&lt;/div&gt;&lt;div style=&quot;&quot;&gt;&lt;span style=&quot;&quot;&gt;Diagrama Sprint 5 - Projeto OO&lt;br&gt;&lt;br&gt;&lt;/span&gt;&lt;/div&gt;&lt;div style=&quot;&quot;&gt;&lt;span style=&quot;&quot;&gt;Alunos&lt;/span&gt;&lt;/div&gt;&lt;div style=&quot;&quot;&gt;&lt;span style=&quot;&quot;&gt;&lt;br&gt;&lt;/span&gt;&lt;/div&gt;&lt;div style=&quot;text-align: left;&quot;&gt;&lt;span style=&quot;&quot;&gt;-&amp;nbsp;César Daniel Costa de Souza&lt;/span&gt;&lt;/div&gt;&lt;div style=&quot;text-align: left;&quot;&gt;&lt;span style=&quot;&quot;&gt;-&amp;nbsp;Érick Santos Rodrigues&lt;/span&gt;&lt;/div&gt;&lt;div style=&quot;text-align: left;&quot;&gt;&lt;span style=&quot;&quot;&gt;-&amp;nbsp;&lt;/span&gt;&lt;span style=&quot;background-color: initial;&quot;&gt;Gustavo Henrique Cruz Nicácio&lt;/span&gt;&lt;/div&gt;&lt;div style=&quot;text-align: left;&quot;&gt;&lt;span style=&quot;&quot;&gt;- Raphael Henrique Braga Leivas&lt;/span&gt;&lt;/div&gt;&lt;div style=&quot;text-align: left;&quot;&gt;&lt;span style=&quot;&quot;&gt;-&amp;nbsp;Vitor Bonfim de Castro Lima&lt;/span&gt;&lt;/div&gt;&lt;div style=&quot;text-align: left;&quot;&gt;&lt;span style=&quot;&quot;&gt;&lt;br&gt;&lt;/span&gt;&lt;/div&gt;" style="text;html=1;resizable=0;autosize=1;align=center;verticalAlign=middle;points=[];rounded=0;fontSize=24;labelBorderColor=none;spacingTop=0;glass=0;labelBackgroundColor=none;spacing=20;strokeColor=default;" parent="WIyWlLk6GJQsqaUBKTNV-1" vertex="1">
          <mxGeometry x="357" y="64" width="409" height="363" as="geometry" />
        </mxCell>
        <mxCell id="VAJZHnrrX_qjfKX5aMCy-21" style="edgeStyle=orthogonalEdgeStyle;rounded=0;orthogonalLoop=1;jettySize=auto;html=1;strokeWidth=1;startArrow=none;startFill=0;endArrow=diamondThin;endFill=0;startSize=16;endSize=16;" parent="WIyWlLk6GJQsqaUBKTNV-1" source="zTteDzw6mhybtIft6KNz-0" edge="1">
          <mxGeometry relative="1" as="geometry">
            <mxPoint x="2071" y="1347" as="targetPoint" />
            <Array as="points">
              <mxPoint x="2071" y="1309" />
              <mxPoint x="2071" y="1309" />
            </Array>
          </mxGeometry>
        </mxCell>
        <mxCell id="zTteDzw6mhybtIft6KNz-0" value="Produto" style="swimlane;fontStyle=0;align=center;verticalAlign=top;childLayout=stackLayout;horizontal=1;startSize=26;horizontalStack=0;resizeParent=1;resizeLast=0;collapsible=1;marginBottom=0;rounded=0;shadow=0;strokeWidth=1;" parent="WIyWlLk6GJQsqaUBKTNV-1" vertex="1">
          <mxGeometry x="1933" y="1027" width="272" height="229" as="geometry">
            <mxRectangle x="130" y="380" width="160" height="26" as="alternateBounds" />
          </mxGeometry>
        </mxCell>
        <mxCell id="zTteDzw6mhybtIft6KNz-1" value="- nome [ string ] &lt;&lt; get/set &gt;&gt;" style="text;align=left;verticalAlign=top;spacingLeft=4;spacingRight=4;overflow=hidden;rotatable=0;points=[[0,0.5],[1,0.5]];portConstraint=eastwest;" parent="zTteDzw6mhybtIft6KNz-0" vertex="1">
          <mxGeometry y="26" width="272" height="26" as="geometry" />
        </mxCell>
        <mxCell id="zTteDzw6mhybtIft6KNz-2" value="- idProduto [ int ] &lt;&lt; get/set &gt;&gt;" style="text;align=left;verticalAlign=top;spacingLeft=4;spacingRight=4;overflow=hidden;rotatable=0;points=[[0,0.5],[1,0.5]];portConstraint=eastwest;rounded=0;shadow=0;html=0;" parent="zTteDzw6mhybtIft6KNz-0" vertex="1">
          <mxGeometry y="52" width="272" height="26" as="geometry" />
        </mxCell>
        <mxCell id="zTteDzw6mhybtIft6KNz-3" value="- preco [ vector &lt;PrecoProduto*&gt; ] &lt;&lt; get &gt;&gt;" style="text;align=left;verticalAlign=top;spacingLeft=4;spacingRight=4;overflow=hidden;rotatable=0;points=[[0,0.5],[1,0.5]];portConstraint=eastwest;rounded=0;shadow=0;html=0;" parent="zTteDzw6mhybtIft6KNz-0" vertex="1">
          <mxGeometry y="78" width="272" height="26" as="geometry" />
        </mxCell>
        <mxCell id="zTteDzw6mhybtIft6KNz-4" value="- categoria [ Categoria ] &lt;&lt; get/set &gt;&gt;" style="text;align=left;verticalAlign=top;spacingLeft=4;spacingRight=4;overflow=hidden;rotatable=0;points=[[0,0.5],[1,0.5]];portConstraint=eastwest;rounded=0;shadow=0;html=0;" parent="zTteDzw6mhybtIft6KNz-0" vertex="1">
          <mxGeometry y="104" width="272" height="26" as="geometry" />
        </mxCell>
        <mxCell id="zTteDzw6mhybtIft6KNz-5" value="- loteMinimo [ int ] &lt;&lt; get/set &gt;&gt;" style="text;align=left;verticalAlign=top;spacingLeft=4;spacingRight=4;overflow=hidden;rotatable=0;points=[[0,0.5],[1,0.5]];portConstraint=eastwest;rounded=0;shadow=0;html=0;" parent="zTteDzw6mhybtIft6KNz-0" vertex="1">
          <mxGeometry y="130" width="272" height="26" as="geometry" />
        </mxCell>
        <mxCell id="zTteDzw6mhybtIft6KNz-6" value="- estoqueMinimo [ int ] &lt;&lt; get/set &gt;&gt;" style="text;align=left;verticalAlign=top;spacingLeft=4;spacingRight=4;overflow=hidden;rotatable=0;points=[[0,0.5],[1,0.5]];portConstraint=eastwest;rounded=0;shadow=0;html=0;" parent="zTteDzw6mhybtIft6KNz-0" vertex="1">
          <mxGeometry y="156" width="272" height="26" as="geometry" />
        </mxCell>
        <mxCell id="zTteDzw6mhybtIft6KNz-8" value="" style="line;html=1;strokeWidth=1;align=left;verticalAlign=middle;spacingTop=-1;spacingLeft=3;spacingRight=3;rotatable=0;labelPosition=right;points=[];portConstraint=eastwest;" parent="zTteDzw6mhybtIft6KNz-0" vertex="1">
          <mxGeometry y="182" width="272" height="17" as="geometry" />
        </mxCell>
        <mxCell id="b2Q9ZwZEgmiC0DYaMUe_-2" value="+ [ void ] updatePreco(float novoPreco)" style="text;html=1;resizable=0;autosize=1;align=left;verticalAlign=middle;points=[];fillColor=none;strokeColor=none;rounded=0;" parent="zTteDzw6mhybtIft6KNz-0" vertex="1">
          <mxGeometry y="199" width="272" height="26" as="geometry" />
        </mxCell>
        <mxCell id="VAJZHnrrX_qjfKX5aMCy-22" style="edgeStyle=orthogonalEdgeStyle;rounded=0;orthogonalLoop=1;jettySize=auto;html=1;entryX=0.5;entryY=0;entryDx=0;entryDy=0;strokeWidth=1;startArrow=diamondThin;startFill=0;endArrow=none;endFill=0;startSize=16;endSize=16;" parent="WIyWlLk6GJQsqaUBKTNV-1" source="zTteDzw6mhybtIft6KNz-17" target="zTteDzw6mhybtIft6KNz-0" edge="1">
          <mxGeometry relative="1" as="geometry" />
        </mxCell>
        <mxCell id="zTteDzw6mhybtIft6KNz-17" value="Categoria" style="swimlane;fontStyle=0;align=center;verticalAlign=top;childLayout=stackLayout;horizontal=1;startSize=26;horizontalStack=0;resizeParent=1;resizeLast=0;collapsible=1;marginBottom=0;rounded=0;shadow=0;strokeWidth=1;" parent="WIyWlLk6GJQsqaUBKTNV-1" vertex="1">
          <mxGeometry x="1968.75" y="872" width="200.5" height="73" as="geometry">
            <mxRectangle x="550" y="140" width="160" height="26" as="alternateBounds" />
          </mxGeometry>
        </mxCell>
        <mxCell id="zTteDzw6mhybtIft6KNz-18" value="- categoria [ string ] &lt;&lt; get/set &gt;&gt;" style="text;align=left;verticalAlign=top;spacingLeft=4;spacingRight=4;overflow=hidden;rotatable=0;points=[[0,0.5],[1,0.5]];portConstraint=eastwest;" parent="zTteDzw6mhybtIft6KNz-17" vertex="1">
          <mxGeometry y="26" width="200.5" height="26" as="geometry" />
        </mxCell>
        <mxCell id="zTteDzw6mhybtIft6KNz-19" value="" style="line;html=1;strokeWidth=1;align=left;verticalAlign=middle;spacingTop=-1;spacingLeft=3;spacingRight=3;rotatable=0;labelPosition=right;points=[];portConstraint=eastwest;" parent="zTteDzw6mhybtIft6KNz-17" vertex="1">
          <mxGeometry y="52" width="200.5" height="8" as="geometry" />
        </mxCell>
        <mxCell id="VAJZHnrrX_qjfKX5aMCy-16" style="edgeStyle=orthogonalEdgeStyle;rounded=0;orthogonalLoop=1;jettySize=auto;html=1;strokeWidth=1;startArrow=none;startFill=0;endArrow=diamondThin;endFill=0;startSize=16;endSize=16;entryX=1.153;entryY=0.992;entryDx=0;entryDy=0;entryPerimeter=0;" parent="WIyWlLk6GJQsqaUBKTNV-1" source="zTteDzw6mhybtIft6KNz-21" target="zTteDzw6mhybtIft6KNz-85" edge="1">
          <mxGeometry relative="1" as="geometry">
            <Array as="points">
              <mxPoint x="1928" y="1908" />
              <mxPoint x="1928" y="1908" />
            </Array>
            <mxPoint x="1948" y="1904" as="targetPoint" />
          </mxGeometry>
        </mxCell>
        <mxCell id="zTteDzw6mhybtIft6KNz-21" value="Lote" style="swimlane;fontStyle=0;align=center;verticalAlign=top;childLayout=stackLayout;horizontal=1;startSize=26;horizontalStack=0;resizeParent=1;resizeLast=0;collapsible=1;marginBottom=0;rounded=0;shadow=0;strokeWidth=1;" parent="WIyWlLk6GJQsqaUBKTNV-1" vertex="1">
          <mxGeometry x="1558" y="1826" width="272" height="181" as="geometry">
            <mxRectangle x="130" y="380" width="160" height="26" as="alternateBounds" />
          </mxGeometry>
        </mxCell>
        <mxCell id="zTteDzw6mhybtIft6KNz-23" value="- dataCriacao [ Data ] &lt;&lt; get/set &gt;&gt;" style="text;align=left;verticalAlign=top;spacingLeft=4;spacingRight=4;overflow=hidden;rotatable=0;points=[[0,0.5],[1,0.5]];portConstraint=eastwest;rounded=0;shadow=0;html=0;" parent="zTteDzw6mhybtIft6KNz-21" vertex="1">
          <mxGeometry y="26" width="272" height="26" as="geometry" />
        </mxCell>
        <mxCell id="zTteDzw6mhybtIft6KNz-24" value="- quantidade [ int ] &lt;&lt; get/set &gt;&gt;" style="text;align=left;verticalAlign=top;spacingLeft=4;spacingRight=4;overflow=hidden;rotatable=0;points=[[0,0.5],[1,0.5]];portConstraint=eastwest;rounded=0;shadow=0;html=0;" parent="zTteDzw6mhybtIft6KNz-21" vertex="1">
          <mxGeometry y="52" width="272" height="26" as="geometry" />
        </mxCell>
        <mxCell id="eWod7wNQgIvaONbQWn_n-2" value="- idProduto [ int ] &lt;&lt; get/set &gt;&gt;" style="text;align=left;verticalAlign=top;spacingLeft=4;spacingRight=4;overflow=hidden;rotatable=0;points=[[0,0.5],[1,0.5]];portConstraint=eastwest;rounded=0;shadow=0;html=0;" parent="zTteDzw6mhybtIft6KNz-21" vertex="1">
          <mxGeometry y="78" width="272" height="26" as="geometry" />
        </mxCell>
        <mxCell id="zTteDzw6mhybtIft6KNz-25" value="- idLote [ int ] &lt;&lt; get/set &gt;&gt;" style="text;align=left;verticalAlign=top;spacingLeft=4;spacingRight=4;overflow=hidden;rotatable=0;points=[[0,0.5],[1,0.5]];portConstraint=eastwest;rounded=0;shadow=0;html=0;" parent="zTteDzw6mhybtIft6KNz-21" vertex="1">
          <mxGeometry y="104" width="272" height="26" as="geometry" />
        </mxCell>
        <mxCell id="zTteDzw6mhybtIft6KNz-28" value="" style="line;html=1;strokeWidth=1;align=left;verticalAlign=middle;spacingTop=-1;spacingLeft=3;spacingRight=3;rotatable=0;labelPosition=right;points=[];portConstraint=eastwest;" parent="zTteDzw6mhybtIft6KNz-21" vertex="1">
          <mxGeometry y="130" width="272" height="8" as="geometry" />
        </mxCell>
        <mxCell id="zTteDzw6mhybtIft6KNz-92" value="+ [ void ] updateLotes()" style="text;html=1;resizable=0;autosize=1;align=left;verticalAlign=middle;points=[];fillColor=none;strokeColor=none;rounded=0;" parent="zTteDzw6mhybtIft6KNz-21" vertex="1">
          <mxGeometry y="138" width="272" height="26" as="geometry" />
        </mxCell>
        <mxCell id="zTteDzw6mhybtIft6KNz-35" value="Estoque" style="swimlane;fontStyle=0;align=center;verticalAlign=top;childLayout=stackLayout;horizontal=1;startSize=26;horizontalStack=0;resizeParent=1;resizeLast=0;collapsible=1;marginBottom=0;rounded=0;shadow=0;strokeWidth=1;" parent="WIyWlLk6GJQsqaUBKTNV-1" vertex="1">
          <mxGeometry x="1860" y="1352" width="447" height="268" as="geometry">
            <mxRectangle x="130" y="380" width="160" height="26" as="alternateBounds" />
          </mxGeometry>
        </mxCell>
        <mxCell id="zTteDzw6mhybtIft6KNz-38" value="- Produto [ map &lt;idProduto&gt;,&lt;*Produto&gt; ] &lt;&lt; get &gt;&gt;" style="text;align=left;verticalAlign=top;spacingLeft=4;spacingRight=4;overflow=hidden;rotatable=0;points=[[0,0.5],[1,0.5]];portConstraint=eastwest;rounded=0;shadow=0;html=0;" parent="zTteDzw6mhybtIft6KNz-35" vertex="1">
          <mxGeometry y="26" width="447" height="26" as="geometry" />
        </mxCell>
        <mxCell id="sz7emtZtiZC7Q6amcMm9-0" value="- lotes [ map &lt; idProduto,*Lotes &gt;] &lt;&lt; get &gt;&gt;" style="text;align=left;verticalAlign=top;spacingLeft=4;spacingRight=4;overflow=hidden;rotatable=0;points=[[0,0.5],[1,0.5]];portConstraint=eastwest;rounded=0;shadow=0;html=0;" parent="zTteDzw6mhybtIft6KNz-35" vertex="1">
          <mxGeometry y="52" width="447" height="26" as="geometry" />
        </mxCell>
        <mxCell id="zTteDzw6mhybtIft6KNz-40" value="" style="line;html=1;strokeWidth=1;align=left;verticalAlign=middle;spacingTop=-1;spacingLeft=3;spacingRight=3;rotatable=0;labelPosition=right;points=[];portConstraint=eastwest;" parent="zTteDzw6mhybtIft6KNz-35" vertex="1">
          <mxGeometry y="78" width="447" height="8" as="geometry" />
        </mxCell>
        <mxCell id="5NJ1zF1r41b_Tl2I5SvM-1" value="- Estoque()" style="text;html=1;resizable=0;autosize=1;align=left;verticalAlign=middle;points=[];fillColor=none;strokeColor=none;rounded=0;" parent="zTteDzw6mhybtIft6KNz-35" vertex="1">
          <mxGeometry y="86" width="447" height="26" as="geometry" />
        </mxCell>
        <mxCell id="h61s1pjZAPFuTAD4vbiL-1" value="&amp;nbsp;- [ void ] reabasteceEstoque(idProduto [ int ])&amp;nbsp;" style="text;html=1;resizable=0;autosize=1;align=left;verticalAlign=middle;points=[];fillColor=none;strokeColor=none;rounded=0;" parent="zTteDzw6mhybtIft6KNz-35" vertex="1">
          <mxGeometry y="112" width="447" height="26" as="geometry" />
        </mxCell>
        <mxCell id="zTteDzw6mhybtIft6KNz-89" value="+ [ vector &amp;lt;int&amp;gt; ] retiraLotes(idProduto [ int ], quantidade [ int ])" style="text;html=1;resizable=0;autosize=1;align=left;verticalAlign=middle;points=[];fillColor=none;strokeColor=none;rounded=0;" parent="zTteDzw6mhybtIft6KNz-35" vertex="1">
          <mxGeometry y="138" width="447" height="26" as="geometry" />
        </mxCell>
        <mxCell id="VAJZHnrrX_qjfKX5aMCy-19" value="+ [ int ] verificaEstoque(idProduto [ int ])&amp;nbsp;" style="text;html=1;resizable=0;autosize=1;align=left;verticalAlign=middle;points=[];fillColor=none;strokeColor=none;rounded=0;" parent="zTteDzw6mhybtIft6KNz-35" vertex="1">
          <mxGeometry y="164" width="447" height="26" as="geometry" />
        </mxCell>
        <mxCell id="h61s1pjZAPFuTAD4vbiL-0" value="+ [ void ] reabasteceEstoque(idProduto [ int ], quantidade [ int ])&amp;nbsp; -- Sobrecarga" style="text;html=1;resizable=0;autosize=1;align=left;verticalAlign=middle;points=[];fillColor=none;strokeColor=none;rounded=0;" parent="zTteDzw6mhybtIft6KNz-35" vertex="1">
          <mxGeometry y="190" width="447" height="26" as="geometry" />
        </mxCell>
        <mxCell id="Jqu-rE0V3BrTrrEw6oY6-3" value="+ [ void ] cadastraLote(idProduto [ int ], lote [ *Lote ])" style="text;html=1;resizable=0;autosize=1;align=left;verticalAlign=middle;points=[];fillColor=none;strokeColor=none;rounded=0;" parent="zTteDzw6mhybtIft6KNz-35" vertex="1">
          <mxGeometry y="216" width="447" height="26" as="geometry" />
        </mxCell>
        <mxCell id="Jqu-rE0V3BrTrrEw6oY6-4" value="+ [ void ] cadastraProduto(nome [ string ],loteMinimo [ int ], estoqueMinimo [ int ])" style="text;html=1;resizable=0;autosize=1;align=left;verticalAlign=middle;points=[];fillColor=none;strokeColor=none;rounded=0;" parent="zTteDzw6mhybtIft6KNz-35" vertex="1">
          <mxGeometry y="242" width="447" height="26" as="geometry" />
        </mxCell>
        <mxCell id="YGI2oginyyZpjjxHaFJb-30" style="edgeStyle=orthogonalEdgeStyle;rounded=0;orthogonalLoop=1;jettySize=auto;html=1;endArrow=diamondThin;endFill=1;startSize=6;endSize=16;" parent="WIyWlLk6GJQsqaUBKTNV-1" source="zTteDzw6mhybtIft6KNz-46" edge="1">
          <mxGeometry relative="1" as="geometry">
            <mxPoint x="3780" y="668" as="targetPoint" />
          </mxGeometry>
        </mxCell>
        <mxCell id="aJcXbw52B6p_eMawTVzu-18" style="edgeStyle=orthogonalEdgeStyle;rounded=0;orthogonalLoop=1;jettySize=auto;html=1;endArrow=open;endFill=0;endSize=16;entryX=1.002;entryY=0.086;entryDx=0;entryDy=0;entryPerimeter=0;" parent="WIyWlLk6GJQsqaUBKTNV-1" source="zTteDzw6mhybtIft6KNz-46" target="5NJ1zF1r41b_Tl2I5SvM-1" edge="1">
          <mxGeometry relative="1" as="geometry">
            <mxPoint x="2309" y="1449" as="targetPoint" />
            <Array as="points">
              <mxPoint x="3788" y="1160" />
              <mxPoint x="2678" y="1160" />
              <mxPoint x="2678" y="1440" />
            </Array>
          </mxGeometry>
        </mxCell>
        <mxCell id="zTteDzw6mhybtIft6KNz-46" value="RegistroDeVenda" style="swimlane;fontStyle=0;align=center;verticalAlign=top;childLayout=stackLayout;horizontal=1;startSize=26;horizontalStack=0;resizeParent=1;resizeLast=0;collapsible=1;marginBottom=0;rounded=0;shadow=0;strokeWidth=1;" parent="WIyWlLk6GJQsqaUBKTNV-1" vertex="1">
          <mxGeometry x="3585" y="742.86" width="389" height="294" as="geometry">
            <mxRectangle x="130" y="380" width="160" height="26" as="alternateBounds" />
          </mxGeometry>
        </mxCell>
        <mxCell id="zTteDzw6mhybtIft6KNz-48" value="- cliente [ string ] &lt;&lt; get/set &gt;&gt;" style="text;align=left;verticalAlign=top;spacingLeft=4;spacingRight=4;overflow=hidden;rotatable=0;points=[[0,0.5],[1,0.5]];portConstraint=eastwest;rounded=0;shadow=0;html=0;" parent="zTteDzw6mhybtIft6KNz-46" vertex="1">
          <mxGeometry y="26" width="389" height="26" as="geometry" />
        </mxCell>
        <mxCell id="aJcXbw52B6p_eMawTVzu-5" value="&amp;nbsp;- cpfCnpj [ int ]&amp;nbsp;&amp;nbsp;&amp;lt;&amp;lt; get/set &amp;gt;&amp;gt;" style="text;html=1;resizable=0;autosize=1;align=left;verticalAlign=middle;points=[];fillColor=none;strokeColor=none;rounded=0;" parent="zTteDzw6mhybtIft6KNz-46" vertex="1">
          <mxGeometry y="52" width="389" height="26" as="geometry" />
        </mxCell>
        <mxCell id="aJcXbw52B6p_eMawTVzu-6" value="&amp;nbsp;- email [ string ]&amp;nbsp;&amp;nbsp;&amp;lt;&amp;lt; get/set &amp;gt;&amp;gt;" style="text;html=1;resizable=0;autosize=1;align=left;verticalAlign=middle;points=[];fillColor=none;strokeColor=none;rounded=0;" parent="zTteDzw6mhybtIft6KNz-46" vertex="1">
          <mxGeometry y="78" width="389" height="26" as="geometry" />
        </mxCell>
        <mxCell id="zTteDzw6mhybtIft6KNz-73" value="&amp;nbsp;- idProduto [ int ]&amp;nbsp;&amp;nbsp;&amp;lt;&amp;lt; get/set &amp;gt;&amp;gt;" style="text;html=1;resizable=0;autosize=1;align=left;verticalAlign=middle;points=[];fillColor=none;strokeColor=none;rounded=0;" parent="zTteDzw6mhybtIft6KNz-46" vertex="1">
          <mxGeometry y="104" width="389" height="26" as="geometry" />
        </mxCell>
        <mxCell id="zTteDzw6mhybtIft6KNz-50" value="- quantidade [ int ] &lt;&lt; get/set &gt;&gt;" style="text;align=left;verticalAlign=top;spacingLeft=4;spacingRight=4;overflow=hidden;rotatable=0;points=[[0,0.5],[1,0.5]];portConstraint=eastwest;rounded=0;shadow=0;html=0;" parent="zTteDzw6mhybtIft6KNz-46" vertex="1">
          <mxGeometry y="130" width="389" height="26" as="geometry" />
        </mxCell>
        <mxCell id="7kLCC5m1ncn1rMBGexYA-37" value="- precoUnitario [ float ] &lt;&lt; get/set &gt;&gt;" style="text;align=left;verticalAlign=top;spacingLeft=4;spacingRight=4;overflow=hidden;rotatable=0;points=[[0,0.5],[1,0.5]];portConstraint=eastwest;rounded=0;shadow=0;html=0;" parent="zTteDzw6mhybtIft6KNz-46" vertex="1">
          <mxGeometry y="156" width="389" height="26" as="geometry" />
        </mxCell>
        <mxCell id="zTteDzw6mhybtIft6KNz-51" value="- idLotes [ vector &lt;int&gt; ] &lt;&lt; get/set &gt;&gt;" style="text;align=left;verticalAlign=top;spacingLeft=4;spacingRight=4;overflow=hidden;rotatable=0;points=[[0,0.5],[1,0.5]];portConstraint=eastwest;rounded=0;shadow=0;html=0;" parent="zTteDzw6mhybtIft6KNz-46" vertex="1">
          <mxGeometry y="182" width="389" height="26" as="geometry" />
        </mxCell>
        <mxCell id="zTteDzw6mhybtIft6KNz-47" value="- dataVenda [ Data ] &lt;&lt; get/set &gt;&gt;" style="text;align=left;verticalAlign=top;spacingLeft=4;spacingRight=4;overflow=hidden;rotatable=0;points=[[0,0.5],[1,0.5]];portConstraint=eastwest;" parent="zTteDzw6mhybtIft6KNz-46" vertex="1">
          <mxGeometry y="208" width="389" height="26" as="geometry" />
        </mxCell>
        <mxCell id="zTteDzw6mhybtIft6KNz-53" value="" style="line;html=1;strokeWidth=1;align=left;verticalAlign=middle;spacingTop=-1;spacingLeft=3;spacingRight=3;rotatable=0;labelPosition=right;points=[];portConstraint=eastwest;" parent="zTteDzw6mhybtIft6KNz-46" vertex="1">
          <mxGeometry y="234" width="389" height="8" as="geometry" />
        </mxCell>
        <mxCell id="aJcXbw52B6p_eMawTVzu-21" value="- [ void ] executaVenda(idProduto [ int ], quantidade [ int ])" style="text;align=left;verticalAlign=top;spacingLeft=4;spacingRight=4;overflow=hidden;rotatable=0;points=[[0,0.5],[1,0.5]];portConstraint=eastwest;rounded=0;shadow=0;html=0;" parent="zTteDzw6mhybtIft6KNz-46" vertex="1">
          <mxGeometry y="242" width="389" height="26" as="geometry" />
        </mxCell>
        <mxCell id="aJcXbw52B6p_eMawTVzu-17" value="+ void printaRegistro()" style="text;align=left;verticalAlign=top;spacingLeft=4;spacingRight=4;overflow=hidden;rotatable=0;points=[[0,0.5],[1,0.5]];portConstraint=eastwest;rounded=0;shadow=0;html=0;" parent="zTteDzw6mhybtIft6KNz-46" vertex="1">
          <mxGeometry y="268" width="389" height="26" as="geometry" />
        </mxCell>
        <mxCell id="VAJZHnrrX_qjfKX5aMCy-18" style="edgeStyle=orthogonalEdgeStyle;rounded=0;orthogonalLoop=1;jettySize=auto;html=1;strokeWidth=1;startArrow=none;startFill=0;endArrow=diamondThin;endFill=0;startSize=16;endSize=16;exitX=0.5;exitY=0;exitDx=0;exitDy=0;" parent="WIyWlLk6GJQsqaUBKTNV-1" source="zTteDzw6mhybtIft6KNz-60" edge="1">
          <mxGeometry relative="1" as="geometry">
            <mxPoint x="2099" y="1627" as="targetPoint" />
            <mxPoint x="2082" y="1835" as="sourcePoint" />
            <Array as="points">
              <mxPoint x="2099" y="1838" />
            </Array>
          </mxGeometry>
        </mxCell>
        <mxCell id="zTteDzw6mhybtIft6KNz-60" value="OrdemDeProducao" style="swimlane;fontStyle=0;align=center;verticalAlign=top;childLayout=stackLayout;horizontal=1;startSize=26;horizontalStack=0;resizeParent=1;resizeLast=0;collapsible=1;marginBottom=0;rounded=0;shadow=0;strokeWidth=1;" parent="WIyWlLk6GJQsqaUBKTNV-1" vertex="1">
          <mxGeometry x="2002" y="1838" width="212" height="166" as="geometry">
            <mxRectangle x="130" y="380" width="160" height="26" as="alternateBounds" />
          </mxGeometry>
        </mxCell>
        <mxCell id="zTteDzw6mhybtIft6KNz-61" value="- produto [ string ] &lt;&lt;get/set&gt;&gt;" style="text;align=left;verticalAlign=top;spacingLeft=4;spacingRight=4;overflow=hidden;rotatable=0;points=[[0,0.5],[1,0.5]];portConstraint=eastwest;" parent="zTteDzw6mhybtIft6KNz-60" vertex="1">
          <mxGeometry y="26" width="212" height="26" as="geometry" />
        </mxCell>
        <mxCell id="eWod7wNQgIvaONbQWn_n-15" value="- idProduto [ int ] &lt;&lt; get/set &gt;&gt;" style="text;align=left;verticalAlign=top;spacingLeft=4;spacingRight=4;overflow=hidden;rotatable=0;points=[[0,0.5],[1,0.5]];portConstraint=eastwest;" parent="zTteDzw6mhybtIft6KNz-60" vertex="1">
          <mxGeometry y="52" width="212" height="26" as="geometry" />
        </mxCell>
        <mxCell id="zTteDzw6mhybtIft6KNz-63" value="- quantidade [ int ] &lt;&lt; get/set &gt;&gt;" style="text;align=left;verticalAlign=top;spacingLeft=4;spacingRight=4;overflow=hidden;rotatable=0;points=[[0,0.5],[1,0.5]];portConstraint=eastwest;rounded=0;shadow=0;html=0;" parent="zTteDzw6mhybtIft6KNz-60" vertex="1">
          <mxGeometry y="78" width="212" height="26" as="geometry" />
        </mxCell>
        <mxCell id="eWod7wNQgIvaONbQWn_n-17" value="- dataOrdem [ Data ] &lt;&lt; get/set &gt;&gt;" style="text;align=left;verticalAlign=top;spacingLeft=4;spacingRight=4;overflow=hidden;rotatable=0;points=[[0,0.5],[1,0.5]];portConstraint=eastwest;rounded=0;shadow=0;html=0;" parent="zTteDzw6mhybtIft6KNz-60" vertex="1">
          <mxGeometry y="104" width="212" height="26" as="geometry" />
        </mxCell>
        <mxCell id="zTteDzw6mhybtIft6KNz-66" value="" style="line;html=1;strokeWidth=1;align=left;verticalAlign=middle;spacingTop=-1;spacingLeft=3;spacingRight=3;rotatable=0;labelPosition=right;points=[];portConstraint=eastwest;" parent="zTteDzw6mhybtIft6KNz-60" vertex="1">
          <mxGeometry y="130" width="212" height="8" as="geometry" />
        </mxCell>
        <mxCell id="eWod7wNQgIvaONbQWn_n-18" value="+ [ Lote ] solicitaLote()" style="text;align=left;verticalAlign=top;spacingLeft=4;spacingRight=4;overflow=hidden;rotatable=0;points=[[0,0.5],[1,0.5]];portConstraint=eastwest;rounded=0;shadow=0;html=0;" parent="zTteDzw6mhybtIft6KNz-60" vertex="1">
          <mxGeometry y="138" width="212" height="26" as="geometry" />
        </mxCell>
        <mxCell id="zTteDzw6mhybtIft6KNz-82" value="1" style="text;html=1;align=center;verticalAlign=middle;resizable=0;points=[];autosize=1;strokeColor=none;fillColor=none;fontSize=24;" parent="WIyWlLk6GJQsqaUBKTNV-1" vertex="1">
          <mxGeometry x="2077" y="1316" width="31" height="41" as="geometry" />
        </mxCell>
        <mxCell id="zTteDzw6mhybtIft6KNz-85" value="1" style="text;html=1;align=center;verticalAlign=middle;resizable=0;points=[];autosize=1;strokeColor=none;fillColor=none;fontSize=24;" parent="WIyWlLk6GJQsqaUBKTNV-1" vertex="1">
          <mxGeometry x="1968" y="1867" width="31" height="41" as="geometry" />
        </mxCell>
        <mxCell id="zTteDzw6mhybtIft6KNz-86" value="0...*" style="text;html=1;align=center;verticalAlign=middle;resizable=0;points=[];autosize=1;strokeColor=none;fillColor=none;fontSize=24;" parent="WIyWlLk6GJQsqaUBKTNV-1" vertex="1">
          <mxGeometry x="1825" y="1869" width="61" height="41" as="geometry" />
        </mxCell>
        <mxCell id="zTteDzw6mhybtIft6KNz-91" value="0...*" style="text;html=1;align=center;verticalAlign=middle;resizable=0;points=[];autosize=1;strokeColor=none;fillColor=none;fontSize=24;" parent="WIyWlLk6GJQsqaUBKTNV-1" vertex="1">
          <mxGeometry x="2066" y="1256" width="61" height="41" as="geometry" />
        </mxCell>
        <mxCell id="zTteDzw6mhybtIft6KNz-99" value="1" style="text;html=1;align=center;verticalAlign=middle;resizable=0;points=[];autosize=1;strokeColor=none;fillColor=none;fontSize=24;" parent="WIyWlLk6GJQsqaUBKTNV-1" vertex="1">
          <mxGeometry x="2064" y="1615" width="31" height="41" as="geometry" />
        </mxCell>
        <mxCell id="zTteDzw6mhybtIft6KNz-100" value="0...*" style="text;html=1;align=center;verticalAlign=middle;resizable=0;points=[];autosize=1;strokeColor=none;fillColor=none;fontSize=24;" parent="WIyWlLk6GJQsqaUBKTNV-1" vertex="1">
          <mxGeometry x="2038.5" y="1799" width="61" height="41" as="geometry" />
        </mxCell>
        <mxCell id="7kLCC5m1ncn1rMBGexYA-0" value="Empresa" style="swimlane;fontStyle=0;align=center;verticalAlign=top;childLayout=stackLayout;horizontal=1;startSize=26;horizontalStack=0;resizeParent=1;resizeLast=0;collapsible=1;marginBottom=0;rounded=0;shadow=0;strokeWidth=1;" parent="WIyWlLk6GJQsqaUBKTNV-1" vertex="1">
          <mxGeometry x="900" y="445" width="317" height="226" as="geometry">
            <mxRectangle x="130" y="380" width="160" height="26" as="alternateBounds" />
          </mxGeometry>
        </mxCell>
        <mxCell id="7kLCC5m1ncn1rMBGexYA-6" value="- nome [ string ] &lt;&lt; get/set &gt;&gt;" style="text;align=left;verticalAlign=top;spacingLeft=4;spacingRight=4;overflow=hidden;rotatable=0;points=[[0,0.5],[1,0.5]];portConstraint=eastwest;rounded=0;shadow=0;html=0;" parent="7kLCC5m1ncn1rMBGexYA-0" vertex="1">
          <mxGeometry y="26" width="317" height="26" as="geometry" />
        </mxCell>
        <mxCell id="7kLCC5m1ncn1rMBGexYA-7" value="- cnpj [ string ] &lt;&lt; get/set &gt;&gt;" style="text;align=left;verticalAlign=top;spacingLeft=4;spacingRight=4;overflow=hidden;rotatable=0;points=[[0,0.5],[1,0.5]];portConstraint=eastwest;rounded=0;shadow=0;html=0;" parent="7kLCC5m1ncn1rMBGexYA-0" vertex="1">
          <mxGeometry y="52" width="317" height="26" as="geometry" />
        </mxCell>
        <mxCell id="7kLCC5m1ncn1rMBGexYA-3" value="- cargos [ vector&lt;Cargo&gt; ] &lt;&lt; get/set &gt;&gt;" style="text;align=left;verticalAlign=top;spacingLeft=4;spacingRight=4;overflow=hidden;rotatable=0;points=[[0,0.5],[1,0.5]];portConstraint=eastwest;rounded=0;shadow=0;html=0;" parent="7kLCC5m1ncn1rMBGexYA-0" vertex="1">
          <mxGeometry y="78" width="317" height="26" as="geometry" />
        </mxCell>
        <mxCell id="7kLCC5m1ncn1rMBGexYA-4" value="- departamentos [ vector&lt;Departamentos&gt; ] &lt;&lt; get/set &gt;&gt;" style="text;align=left;verticalAlign=top;spacingLeft=4;spacingRight=4;overflow=hidden;rotatable=0;points=[[0,0.5],[1,0.5]];portConstraint=eastwest;rounded=0;shadow=0;html=0;" parent="7kLCC5m1ncn1rMBGexYA-0" vertex="1">
          <mxGeometry y="104" width="317" height="26" as="geometry" />
        </mxCell>
        <mxCell id="7e1-ul4cAq3rn7RSBH3--2" value="- historicoDeLogs [ HistoricoDeLogs* ] &lt;&lt; get / set &gt;&gt;" style="text;align=left;verticalAlign=top;spacingLeft=4;spacingRight=4;overflow=hidden;rotatable=0;points=[[0,0.5],[1,0.5]];portConstraint=eastwest;rounded=0;shadow=0;html=0;" parent="7kLCC5m1ncn1rMBGexYA-0" vertex="1">
          <mxGeometry y="130" width="317" height="26" as="geometry" />
        </mxCell>
        <mxCell id="7kLCC5m1ncn1rMBGexYA-8" value="" style="line;html=1;strokeWidth=1;align=left;verticalAlign=middle;spacingTop=-1;spacingLeft=3;spacingRight=3;rotatable=0;labelPosition=right;points=[];portConstraint=eastwest;" parent="7kLCC5m1ncn1rMBGexYA-0" vertex="1">
          <mxGeometry y="156" width="317" height="8" as="geometry" />
        </mxCell>
        <mxCell id="QKy6g-BmtBENM2KowJZ9-1" value="&lt;span style=&quot;color: rgb(240, 240, 240); font-family: Helvetica; font-size: 12px; font-style: normal; font-variant-ligatures: normal; font-variant-caps: normal; font-weight: 400; letter-spacing: normal; orphans: 2; text-align: left; text-indent: 0px; text-transform: none; widows: 2; word-spacing: 0px; -webkit-text-stroke-width: 0px; background-color: rgb(42, 42, 42); text-decoration-thickness: initial; text-decoration-style: initial; text-decoration-color: initial; float: none; display: inline !important;&quot;&gt;- Empresa()&lt;/span&gt;" style="text;whiteSpace=wrap;html=1;" vertex="1" parent="7kLCC5m1ncn1rMBGexYA-0">
          <mxGeometry y="164" width="317" height="36" as="geometry" />
        </mxCell>
        <mxCell id="7kLCC5m1ncn1rMBGexYA-20" value="+ [ Empresa* ] getInstanciaEmpresa()" style="text;html=1;resizable=0;autosize=1;align=left;verticalAlign=middle;points=[];fillColor=none;strokeColor=none;rounded=0;" parent="7kLCC5m1ncn1rMBGexYA-0" vertex="1">
          <mxGeometry y="200" width="317" height="26" as="geometry" />
        </mxCell>
        <mxCell id="7kLCC5m1ncn1rMBGexYA-21" value="PrecoProduto" style="swimlane;fontStyle=0;align=center;verticalAlign=top;childLayout=stackLayout;horizontal=1;startSize=26;horizontalStack=0;resizeParent=1;resizeLast=0;collapsible=1;marginBottom=0;rounded=0;shadow=0;strokeWidth=1;" parent="WIyWlLk6GJQsqaUBKTNV-1" vertex="1">
          <mxGeometry x="1360" y="1180" width="288" height="126" as="geometry">
            <mxRectangle x="130" y="380" width="160" height="26" as="alternateBounds" />
          </mxGeometry>
        </mxCell>
        <mxCell id="7kLCC5m1ncn1rMBGexYA-22" value="- precoBase [ float ] &lt;&lt; get/set &gt;&gt;" style="text;align=left;verticalAlign=top;spacingLeft=4;spacingRight=4;overflow=hidden;rotatable=0;points=[[0,0.5],[1,0.5]];portConstraint=eastwest;" parent="7kLCC5m1ncn1rMBGexYA-21" vertex="1">
          <mxGeometry y="26" width="288" height="26" as="geometry" />
        </mxCell>
        <mxCell id="7kLCC5m1ncn1rMBGexYA-23" value="- percentualVariacao [ float ] &lt;&lt; get/set &gt;&gt;" style="text;align=left;verticalAlign=top;spacingLeft=4;spacingRight=4;overflow=hidden;rotatable=0;points=[[0,0.5],[1,0.5]];portConstraint=eastwest;rounded=0;shadow=0;html=0;" parent="7kLCC5m1ncn1rMBGexYA-21" vertex="1">
          <mxGeometry y="52" width="288" height="26" as="geometry" />
        </mxCell>
        <mxCell id="7kLCC5m1ncn1rMBGexYA-24" value="- dataVariacao [ data ] &lt;&lt; get/set &gt;&gt;" style="text;align=left;verticalAlign=top;spacingLeft=4;spacingRight=4;overflow=hidden;rotatable=0;points=[[0,0.5],[1,0.5]];portConstraint=eastwest;rounded=0;shadow=0;html=0;" parent="7kLCC5m1ncn1rMBGexYA-21" vertex="1">
          <mxGeometry y="78" width="288" height="26" as="geometry" />
        </mxCell>
        <mxCell id="7kLCC5m1ncn1rMBGexYA-26" value="" style="line;html=1;strokeWidth=1;align=left;verticalAlign=middle;spacingTop=-1;spacingLeft=3;spacingRight=3;rotatable=0;labelPosition=right;points=[];portConstraint=eastwest;" parent="7kLCC5m1ncn1rMBGexYA-21" vertex="1">
          <mxGeometry y="104" width="288" height="8" as="geometry" />
        </mxCell>
        <mxCell id="7kLCC5m1ncn1rMBGexYA-34" value="1" style="text;html=1;resizable=0;autosize=1;align=center;verticalAlign=middle;points=[];fillColor=none;strokeColor=none;rounded=0;fontSize=24;" parent="WIyWlLk6GJQsqaUBKTNV-1" vertex="1">
          <mxGeometry x="1905" y="1104" width="31" height="41" as="geometry" />
        </mxCell>
        <mxCell id="7kLCC5m1ncn1rMBGexYA-40" value="Login" style="swimlane;fontStyle=0;align=center;verticalAlign=top;childLayout=stackLayout;horizontal=1;startSize=26;horizontalStack=0;resizeParent=1;resizeLast=0;collapsible=1;marginBottom=0;rounded=0;shadow=0;strokeWidth=1;" parent="WIyWlLk6GJQsqaUBKTNV-1" vertex="1">
          <mxGeometry x="1574" y="259" width="318" height="177" as="geometry">
            <mxRectangle x="230" y="140" width="160" height="26" as="alternateBounds" />
          </mxGeometry>
        </mxCell>
        <mxCell id="7kLCC5m1ncn1rMBGexYA-41" value="- usuario [ Usuario ] &amp;lt;&amp;lt; get/set &amp;gt;&amp;gt;" style="text;html=1;resizable=0;autosize=1;align=left;verticalAlign=middle;points=[];fillColor=none;strokeColor=none;rounded=0;" parent="7kLCC5m1ncn1rMBGexYA-40" vertex="1">
          <mxGeometry y="26" width="318" height="26" as="geometry" />
        </mxCell>
        <mxCell id="7kLCC5m1ncn1rMBGexYA-43" value="- logadoEm [ data ] &amp;lt;&amp;lt; get/set &amp;gt;&amp;gt;" style="text;html=1;resizable=0;autosize=1;align=left;verticalAlign=middle;points=[];fillColor=none;strokeColor=none;rounded=0;" parent="7kLCC5m1ncn1rMBGexYA-40" vertex="1">
          <mxGeometry y="52" width="318" height="26" as="geometry" />
        </mxCell>
        <mxCell id="7kLCC5m1ncn1rMBGexYA-46" value="" style="line;html=1;strokeWidth=1;align=left;verticalAlign=middle;spacingTop=-1;spacingLeft=3;spacingRight=3;rotatable=0;labelPosition=right;points=[];portConstraint=eastwest;" parent="7kLCC5m1ncn1rMBGexYA-40" vertex="1">
          <mxGeometry y="78" width="318" height="8" as="geometry" />
        </mxCell>
        <mxCell id="3wVNMFGkU4_Ji0onx0FX-6" value="- Login()" style="text;html=1;resizable=0;autosize=1;align=left;verticalAlign=middle;points=[];fillColor=none;strokeColor=none;rounded=0;" parent="7kLCC5m1ncn1rMBGexYA-40" vertex="1">
          <mxGeometry y="86" width="318" height="26" as="geometry" />
        </mxCell>
        <mxCell id="7kLCC5m1ncn1rMBGexYA-50" value="+ [ Login* ] logar ()" style="text;html=1;resizable=0;autosize=1;align=left;verticalAlign=middle;points=[];fillColor=none;strokeColor=none;rounded=0;" parent="7kLCC5m1ncn1rMBGexYA-40" vertex="1">
          <mxGeometry y="112" width="318" height="26" as="geometry" />
        </mxCell>
        <mxCell id="7e1-ul4cAq3rn7RSBH3--0" value="+ ~login () [faz a função de deslogar o usuário]" style="text;html=1;resizable=0;autosize=1;align=left;verticalAlign=middle;points=[];fillColor=none;strokeColor=none;rounded=0;" parent="7kLCC5m1ncn1rMBGexYA-40" vertex="1">
          <mxGeometry y="138" width="318" height="26" as="geometry" />
        </mxCell>
        <mxCell id="b2Q9ZwZEgmiC0DYaMUe_-3" value="Legenda&lt;br&gt;&lt;br&gt;&lt;div style=&quot;text-align: justify;&quot;&gt;&lt;span style=&quot;background-color: initial;&quot;&gt;&amp;lt;&amp;lt;get/set&amp;gt;&amp;gt; : as funções get e set são implementadas para esse atributo.&lt;/span&gt;&lt;/div&gt;&lt;div style=&quot;text-align: justify;&quot;&gt;&lt;span style=&quot;background-color: initial;&quot;&gt;&amp;lt;&amp;lt;get&amp;gt;&amp;gt; :&amp;nbsp; somente a função get é implementada para esse atributo.&lt;/span&gt;&lt;/div&gt;&lt;div style=&quot;text-align: justify;&quot;&gt;&lt;span style=&quot;background-color: initial;&quot;&gt;&lt;br&gt;&lt;/span&gt;&lt;/div&gt;&lt;div style=&quot;text-align: justify;&quot;&gt;&lt;span style=&quot;background-color: initial;&quot;&gt;Singletons:&lt;/span&gt;&lt;/div&gt;&lt;div style=&quot;text-align: justify;&quot;&gt;&lt;span style=&quot;white-space: pre;&quot;&gt; &lt;/span&gt;Empresa&lt;br&gt;&lt;/div&gt;&lt;div style=&quot;text-align: justify;&quot;&gt;&lt;span style=&quot;white-space: pre;&quot;&gt; &lt;/span&gt;Estoque&lt;br&gt;&lt;/div&gt;&lt;div style=&quot;text-align: justify;&quot;&gt;&lt;span style=&quot;white-space: pre;&quot;&gt; &lt;/span&gt;HistoricoDeLogs&lt;br&gt;&lt;/div&gt;&lt;div style=&quot;text-align: justify;&quot;&gt;&lt;span style=&quot;white-space: pre;&quot;&gt; &lt;/span&gt;Login&lt;br&gt;&lt;/div&gt;" style="shape=note2;boundedLbl=1;whiteSpace=wrap;html=1;size=25;verticalAlign=top;align=center;" parent="WIyWlLk6GJQsqaUBKTNV-1" vertex="1">
          <mxGeometry x="811.5" y="65" width="400" height="180" as="geometry" />
        </mxCell>
        <mxCell id="VAJZHnrrX_qjfKX5aMCy-23" value="0...*" style="text;html=1;align=center;verticalAlign=middle;resizable=0;points=[];autosize=1;strokeColor=none;fillColor=none;fontSize=24;" parent="WIyWlLk6GJQsqaUBKTNV-1" vertex="1">
          <mxGeometry x="2066" y="991.5" width="61" height="41" as="geometry" />
        </mxCell>
        <mxCell id="VAJZHnrrX_qjfKX5aMCy-24" value="1" style="text;html=1;align=center;verticalAlign=middle;resizable=0;points=[];autosize=1;strokeColor=none;fillColor=none;fontSize=24;" parent="WIyWlLk6GJQsqaUBKTNV-1" vertex="1">
          <mxGeometry x="2072" y="941" width="31" height="41" as="geometry" />
        </mxCell>
        <mxCell id="eWod7wNQgIvaONbQWn_n-10" style="edgeStyle=orthogonalEdgeStyle;rounded=0;orthogonalLoop=1;jettySize=auto;html=1;entryX=0;entryY=0.5;entryDx=0;entryDy=0;endArrow=diamondThin;endFill=0;startSize=16;endSize=16;" parent="WIyWlLk6GJQsqaUBKTNV-1" source="7kLCC5m1ncn1rMBGexYA-23" target="zTteDzw6mhybtIft6KNz-4" edge="1">
          <mxGeometry relative="1" as="geometry" />
        </mxCell>
        <mxCell id="3wVNMFGkU4_Ji0onx0FX-0" value="1...*" style="text;html=1;resizable=0;autosize=1;align=center;verticalAlign=middle;points=[];fillColor=none;strokeColor=none;rounded=0;fontSize=24;" parent="WIyWlLk6GJQsqaUBKTNV-1" vertex="1">
          <mxGeometry x="1645" y="1205" width="61" height="41" as="geometry" />
        </mxCell>
        <mxCell id="3wVNMFGkU4_Ji0onx0FX-11" value="1" style="text;html=1;resizable=0;autosize=1;align=center;verticalAlign=middle;points=[];fillColor=none;strokeColor=none;rounded=0;fontSize=24;" parent="WIyWlLk6GJQsqaUBKTNV-1" vertex="1">
          <mxGeometry x="1899" y="287" width="31" height="41" as="geometry" />
        </mxCell>
        <mxCell id="3wVNMFGkU4_Ji0onx0FX-12" value="1" style="text;html=1;resizable=0;autosize=1;align=center;verticalAlign=middle;points=[];fillColor=none;strokeColor=none;rounded=0;fontSize=24;" parent="WIyWlLk6GJQsqaUBKTNV-1" vertex="1">
          <mxGeometry x="2015.5" y="287" width="31" height="41" as="geometry" />
        </mxCell>
        <mxCell id="3wVNMFGkU4_Ji0onx0FX-15" value="1" style="text;html=1;resizable=0;autosize=1;align=center;verticalAlign=middle;points=[];fillColor=none;strokeColor=none;rounded=0;fontSize=24;" parent="WIyWlLk6GJQsqaUBKTNV-1" vertex="1">
          <mxGeometry x="1221" y="496" width="31" height="41" as="geometry" />
        </mxCell>
        <mxCell id="3wVNMFGkU4_Ji0onx0FX-16" value="1" style="text;html=1;resizable=0;autosize=1;align=center;verticalAlign=middle;points=[];fillColor=none;strokeColor=none;rounded=0;fontSize=24;" parent="WIyWlLk6GJQsqaUBKTNV-1" vertex="1">
          <mxGeometry x="1221" y="567" width="31" height="41" as="geometry" />
        </mxCell>
        <mxCell id="3wVNMFGkU4_Ji0onx0FX-18" value="0...*" style="text;html=1;resizable=0;autosize=1;align=center;verticalAlign=middle;points=[];fillColor=none;strokeColor=none;rounded=0;fontSize=24;" parent="WIyWlLk6GJQsqaUBKTNV-1" vertex="1">
          <mxGeometry x="1482" y="598" width="61" height="41" as="geometry" />
        </mxCell>
        <mxCell id="3wVNMFGkU4_Ji0onx0FX-19" value="0...*" style="text;html=1;resizable=0;autosize=1;align=center;verticalAlign=middle;points=[];fillColor=none;strokeColor=none;rounded=0;fontSize=24;" parent="WIyWlLk6GJQsqaUBKTNV-1" vertex="1">
          <mxGeometry x="1299" y="496" width="61" height="41" as="geometry" />
        </mxCell>
        <mxCell id="M2em0EXgHuWA70PSRnWb-29" style="edgeStyle=orthogonalEdgeStyle;rounded=0;orthogonalLoop=1;jettySize=auto;html=1;endArrow=diamondThin;endFill=0;endSize=18;" parent="WIyWlLk6GJQsqaUBKTNV-1" source="M2em0EXgHuWA70PSRnWb-0" edge="1">
          <mxGeometry relative="1" as="geometry">
            <mxPoint x="2153" y="245" as="targetPoint" />
          </mxGeometry>
        </mxCell>
        <mxCell id="M2em0EXgHuWA70PSRnWb-0" value="Permissao" style="swimlane;fontStyle=0;align=center;verticalAlign=top;childLayout=stackLayout;horizontal=1;startSize=26;horizontalStack=0;resizeParent=1;resizeLast=0;collapsible=1;marginBottom=0;rounded=0;shadow=0;strokeWidth=1;" parent="WIyWlLk6GJQsqaUBKTNV-1" vertex="1">
          <mxGeometry x="2036" y="-4" width="233" height="112" as="geometry">
            <mxRectangle x="230" y="140" width="160" height="26" as="alternateBounds" />
          </mxGeometry>
        </mxCell>
        <mxCell id="M2em0EXgHuWA70PSRnWb-1" value="- idPermissao [ int ] &amp;lt;&amp;lt; get / set &amp;gt;&amp;gt;" style="text;html=1;resizable=0;autosize=1;align=left;verticalAlign=middle;points=[];fillColor=none;strokeColor=none;rounded=0;" parent="M2em0EXgHuWA70PSRnWb-0" vertex="1">
          <mxGeometry y="26" width="233" height="26" as="geometry" />
        </mxCell>
        <mxCell id="M2em0EXgHuWA70PSRnWb-26" value="- descricao [ string ] &amp;lt;&amp;lt; get / set &amp;gt;&amp;gt;" style="text;html=1;resizable=0;autosize=1;align=left;verticalAlign=middle;points=[];fillColor=none;strokeColor=none;rounded=0;" parent="M2em0EXgHuWA70PSRnWb-0" vertex="1">
          <mxGeometry y="52" width="233" height="26" as="geometry" />
        </mxCell>
        <mxCell id="M2em0EXgHuWA70PSRnWb-2" value="" style="line;html=1;strokeWidth=1;align=left;verticalAlign=middle;spacingTop=-1;spacingLeft=3;spacingRight=3;rotatable=0;labelPosition=right;points=[];portConstraint=eastwest;" parent="M2em0EXgHuWA70PSRnWb-0" vertex="1">
          <mxGeometry y="78" width="233" height="8" as="geometry" />
        </mxCell>
        <mxCell id="M06_jUTVw170hM1FY45h-0" value="- bool verificaPermissao (int iPermissao)" style="text;html=1;resizable=0;autosize=1;align=left;verticalAlign=middle;points=[];fillColor=none;strokeColor=none;rounded=0;" parent="M2em0EXgHuWA70PSRnWb-0" vertex="1">
          <mxGeometry y="86" width="233" height="26" as="geometry" />
        </mxCell>
        <mxCell id="M2em0EXgHuWA70PSRnWb-30" value="1" style="text;html=1;resizable=0;autosize=1;align=center;verticalAlign=middle;points=[];fillColor=none;strokeColor=none;rounded=0;fontSize=24;" parent="WIyWlLk6GJQsqaUBKTNV-1" vertex="1">
          <mxGeometry x="2153" y="205" width="31" height="41" as="geometry" />
        </mxCell>
        <mxCell id="M2em0EXgHuWA70PSRnWb-31" value="0...*" style="text;html=1;resizable=0;autosize=1;align=center;verticalAlign=middle;points=[];fillColor=none;strokeColor=none;rounded=0;fontSize=24;" parent="WIyWlLk6GJQsqaUBKTNV-1" vertex="1">
          <mxGeometry x="2153" y="108" width="61" height="41" as="geometry" />
        </mxCell>
        <mxCell id="GouWXUrFiB3hD5HciUw6-0" style="edgeStyle=orthogonalEdgeStyle;rounded=0;orthogonalLoop=1;jettySize=auto;html=1;endArrow=diamondThin;endFill=1;endSize=16;entryX=0.5;entryY=1;entryDx=0;entryDy=0;exitX=1;exitY=1.061;exitDx=0;exitDy=0;exitPerimeter=0;" parent="WIyWlLk6GJQsqaUBKTNV-1" source="GouWXUrFiB3hD5HciUw6-40" target="7kLCC5m1ncn1rMBGexYA-0" edge="1">
          <mxGeometry relative="1" as="geometry">
            <mxPoint x="1057" y="712" as="targetPoint" />
            <Array as="points">
              <mxPoint x="1861" y="1503" />
              <mxPoint x="1059" y="1503" />
              <mxPoint x="1059" y="693" />
            </Array>
            <mxPoint x="1841" y="1524" as="sourcePoint" />
          </mxGeometry>
        </mxCell>
        <mxCell id="GouWXUrFiB3hD5HciUw6-38" style="edgeStyle=orthogonalEdgeStyle;rounded=0;orthogonalLoop=1;jettySize=auto;html=1;endArrow=diamondThin;endFill=1;endSize=16;" parent="WIyWlLk6GJQsqaUBKTNV-1" source="GouWXUrFiB3hD5HciUw6-3" target="GouWXUrFiB3hD5HciUw6-37" edge="1">
          <mxGeometry relative="1" as="geometry">
            <Array as="points">
              <mxPoint x="506" y="737" />
              <mxPoint x="506" y="737" />
            </Array>
            <mxPoint x="505" y="655" as="targetPoint" />
          </mxGeometry>
        </mxCell>
        <mxCell id="GouWXUrFiB3hD5HciUw6-3" value="LogAbstrata" style="swimlane;fontStyle=0;align=center;verticalAlign=top;childLayout=stackLayout;horizontal=1;startSize=26;horizontalStack=0;resizeParent=1;resizeLast=0;collapsible=1;marginBottom=0;rounded=0;shadow=0;strokeWidth=1;" parent="WIyWlLk6GJQsqaUBKTNV-1" vertex="1">
          <mxGeometry x="392" y="774" width="249" height="150" as="geometry">
            <mxRectangle x="230" y="140" width="160" height="26" as="alternateBounds" />
          </mxGeometry>
        </mxCell>
        <mxCell id="GouWXUrFiB3hD5HciUw6-4" value="- usuario [ Usuario* ] &amp;lt;&amp;lt; get/set &amp;gt;&amp;gt;" style="text;html=1;resizable=0;autosize=1;align=left;verticalAlign=middle;points=[];fillColor=none;strokeColor=none;rounded=0;" parent="GouWXUrFiB3hD5HciUw6-3" vertex="1">
          <mxGeometry y="26" width="249" height="26" as="geometry" />
        </mxCell>
        <mxCell id="GouWXUrFiB3hD5HciUw6-5" value="- data [ Data ] &amp;lt;&amp;lt; get/set &amp;gt;&amp;gt;" style="text;html=1;resizable=0;autosize=1;align=left;verticalAlign=middle;points=[];fillColor=none;strokeColor=none;rounded=0;" parent="GouWXUrFiB3hD5HciUw6-3" vertex="1">
          <mxGeometry y="52" width="249" height="26" as="geometry" />
        </mxCell>
        <mxCell id="GouWXUrFiB3hD5HciUw6-6" value="- classeAcessada [ string ] &amp;lt;&amp;lt; get/set &amp;gt;&amp;gt;" style="text;html=1;resizable=0;autosize=1;align=left;verticalAlign=middle;points=[];fillColor=none;strokeColor=none;rounded=0;" parent="GouWXUrFiB3hD5HciUw6-3" vertex="1">
          <mxGeometry y="78" width="249" height="26" as="geometry" />
        </mxCell>
        <mxCell id="GouWXUrFiB3hD5HciUw6-9" value="" style="line;html=1;strokeWidth=1;align=left;verticalAlign=middle;spacingTop=-1;spacingLeft=3;spacingRight=3;rotatable=0;labelPosition=right;points=[];portConstraint=eastwest;" parent="GouWXUrFiB3hD5HciUw6-3" vertex="1">
          <mxGeometry y="104" width="249" height="8" as="geometry" />
        </mxCell>
        <mxCell id="GouWXUrFiB3hD5HciUw6-29" value="#&amp;nbsp;[ string ]&amp;nbsp;printLog()" style="text;html=1;resizable=0;autosize=1;align=left;verticalAlign=middle;points=[];fillColor=none;strokeColor=none;rounded=0;" parent="GouWXUrFiB3hD5HciUw6-3" vertex="1">
          <mxGeometry y="112" width="249" height="26" as="geometry" />
        </mxCell>
        <mxCell id="GouWXUrFiB3hD5HciUw6-26" style="edgeStyle=orthogonalEdgeStyle;rounded=0;orthogonalLoop=1;jettySize=auto;html=1;endArrow=block;endFill=0;endSize=16;" parent="WIyWlLk6GJQsqaUBKTNV-1" source="GouWXUrFiB3hD5HciUw6-11" edge="1">
          <mxGeometry relative="1" as="geometry">
            <mxPoint x="434" y="927" as="targetPoint" />
            <Array as="points">
              <mxPoint x="245" y="984" />
              <mxPoint x="434" y="984" />
            </Array>
          </mxGeometry>
        </mxCell>
        <mxCell id="GouWXUrFiB3hD5HciUw6-11" value="LogLeitura" style="swimlane;fontStyle=0;align=center;verticalAlign=top;childLayout=stackLayout;horizontal=1;startSize=26;horizontalStack=0;resizeParent=1;resizeLast=0;collapsible=1;marginBottom=0;rounded=0;shadow=0;strokeWidth=1;" parent="WIyWlLk6GJQsqaUBKTNV-1" vertex="1">
          <mxGeometry x="116" y="1029.5" width="249" height="76" as="geometry">
            <mxRectangle x="230" y="140" width="160" height="26" as="alternateBounds" />
          </mxGeometry>
        </mxCell>
        <mxCell id="GouWXUrFiB3hD5HciUw6-12" value="- informacao [ string ] &amp;lt;&amp;lt; get/set &amp;gt;&amp;gt;" style="text;html=1;resizable=0;autosize=1;align=left;verticalAlign=middle;points=[];fillColor=none;strokeColor=none;rounded=0;" parent="GouWXUrFiB3hD5HciUw6-11" vertex="1">
          <mxGeometry y="26" width="249" height="26" as="geometry" />
        </mxCell>
        <mxCell id="GouWXUrFiB3hD5HciUw6-15" value="" style="line;html=1;strokeWidth=1;align=left;verticalAlign=middle;spacingTop=-1;spacingLeft=3;spacingRight=3;rotatable=0;labelPosition=right;points=[];portConstraint=eastwest;" parent="GouWXUrFiB3hD5HciUw6-11" vertex="1">
          <mxGeometry y="52" width="249" height="8" as="geometry" />
        </mxCell>
        <mxCell id="GouWXUrFiB3hD5HciUw6-27" style="edgeStyle=orthogonalEdgeStyle;rounded=0;orthogonalLoop=1;jettySize=auto;html=1;endArrow=block;endFill=0;endSize=16;" parent="WIyWlLk6GJQsqaUBKTNV-1" source="GouWXUrFiB3hD5HciUw6-16" edge="1">
          <mxGeometry relative="1" as="geometry">
            <mxPoint x="517.2592592592591" y="924.5555555555557" as="targetPoint" />
            <Array as="points">
              <mxPoint x="517" y="987" />
              <mxPoint x="517" y="987" />
            </Array>
          </mxGeometry>
        </mxCell>
        <mxCell id="GouWXUrFiB3hD5HciUw6-16" value="LogEscrita" style="swimlane;fontStyle=0;align=center;verticalAlign=top;childLayout=stackLayout;horizontal=1;startSize=26;horizontalStack=0;resizeParent=1;resizeLast=0;collapsible=1;marginBottom=0;rounded=0;shadow=0;strokeWidth=1;" parent="WIyWlLk6GJQsqaUBKTNV-1" vertex="1">
          <mxGeometry x="407" y="1027" width="249" height="119" as="geometry">
            <mxRectangle x="230" y="140" width="160" height="26" as="alternateBounds" />
          </mxGeometry>
        </mxCell>
        <mxCell id="GouWXUrFiB3hD5HciUw6-17" value="- atributoAcessado [ string ] &amp;lt;&amp;lt; get/set &amp;gt;&amp;gt;" style="text;html=1;resizable=0;autosize=1;align=left;verticalAlign=middle;points=[];fillColor=none;strokeColor=none;rounded=0;" parent="GouWXUrFiB3hD5HciUw6-16" vertex="1">
          <mxGeometry y="26" width="249" height="26" as="geometry" />
        </mxCell>
        <mxCell id="QKy6g-BmtBENM2KowJZ9-0" value="- atributoAntes [ string ] &amp;lt;&amp;lt; get/set &amp;gt;&amp;gt;" style="text;html=1;resizable=0;autosize=1;align=left;verticalAlign=middle;points=[];fillColor=none;strokeColor=none;rounded=0;" vertex="1" parent="GouWXUrFiB3hD5HciUw6-16">
          <mxGeometry y="52" width="249" height="26" as="geometry" />
        </mxCell>
        <mxCell id="GouWXUrFiB3hD5HciUw6-18" value="- atributoDepois [ string ] &amp;lt;&amp;lt; get/set &amp;gt;&amp;gt;" style="text;html=1;resizable=0;autosize=1;align=left;verticalAlign=middle;points=[];fillColor=none;strokeColor=none;rounded=0;" parent="GouWXUrFiB3hD5HciUw6-16" vertex="1">
          <mxGeometry y="78" width="249" height="26" as="geometry" />
        </mxCell>
        <mxCell id="GouWXUrFiB3hD5HciUw6-20" value="" style="line;html=1;strokeWidth=1;align=left;verticalAlign=middle;spacingTop=-1;spacingLeft=3;spacingRight=3;rotatable=0;labelPosition=right;points=[];portConstraint=eastwest;" parent="GouWXUrFiB3hD5HciUw6-16" vertex="1">
          <mxGeometry y="104" width="249" height="8" as="geometry" />
        </mxCell>
        <mxCell id="GouWXUrFiB3hD5HciUw6-28" style="edgeStyle=orthogonalEdgeStyle;rounded=0;orthogonalLoop=1;jettySize=auto;html=1;endArrow=block;endFill=0;endSize=16;" parent="WIyWlLk6GJQsqaUBKTNV-1" source="GouWXUrFiB3hD5HciUw6-21" edge="1">
          <mxGeometry relative="1" as="geometry">
            <mxPoint x="603" y="925" as="targetPoint" />
            <Array as="points">
              <mxPoint x="820" y="983" />
              <mxPoint x="612" y="983" />
              <mxPoint x="605" y="982" />
            </Array>
          </mxGeometry>
        </mxCell>
        <mxCell id="GouWXUrFiB3hD5HciUw6-21" value="LogExcecao" style="swimlane;fontStyle=0;align=center;verticalAlign=top;childLayout=stackLayout;horizontal=1;startSize=26;horizontalStack=0;resizeParent=1;resizeLast=0;collapsible=1;marginBottom=0;rounded=0;shadow=0;strokeWidth=1;" parent="WIyWlLk6GJQsqaUBKTNV-1" vertex="1">
          <mxGeometry x="700" y="1027" width="249" height="75" as="geometry">
            <mxRectangle x="230" y="140" width="160" height="26" as="alternateBounds" />
          </mxGeometry>
        </mxCell>
        <mxCell id="GouWXUrFiB3hD5HciUw6-22" value="- metodo [ string ] &amp;lt;&amp;lt; get/set &amp;gt;&amp;gt;" style="text;html=1;resizable=0;autosize=1;align=left;verticalAlign=middle;points=[];fillColor=none;strokeColor=none;rounded=0;" parent="GouWXUrFiB3hD5HciUw6-21" vertex="1">
          <mxGeometry y="26" width="249" height="26" as="geometry" />
        </mxCell>
        <mxCell id="GouWXUrFiB3hD5HciUw6-25" value="" style="line;html=1;strokeWidth=1;align=left;verticalAlign=middle;spacingTop=-1;spacingLeft=3;spacingRight=3;rotatable=0;labelPosition=right;points=[];portConstraint=eastwest;" parent="GouWXUrFiB3hD5HciUw6-21" vertex="1">
          <mxGeometry y="52" width="249" height="8" as="geometry" />
        </mxCell>
        <mxCell id="7e1-ul4cAq3rn7RSBH3--1" style="edgeStyle=orthogonalEdgeStyle;rounded=0;orthogonalLoop=1;jettySize=auto;html=1;endArrow=diamondThin;endFill=1;endSize=16;exitX=0.998;exitY=0.436;exitDx=0;exitDy=0;exitPerimeter=0;entryX=-0.001;entryY=0.103;entryDx=0;entryDy=0;entryPerimeter=0;" parent="WIyWlLk6GJQsqaUBKTNV-1" source="GouWXUrFiB3hD5HciUw6-35" target="7e1-ul4cAq3rn7RSBH3--2" edge="1">
          <mxGeometry relative="1" as="geometry">
            <Array as="points">
              <mxPoint x="691" y="580" />
              <mxPoint x="696" y="580" />
              <mxPoint x="696" y="578" />
            </Array>
            <mxPoint x="832" y="570" as="targetPoint" />
          </mxGeometry>
        </mxCell>
        <mxCell id="GouWXUrFiB3hD5HciUw6-32" value="HistoricoDeLogs" style="swimlane;fontStyle=0;align=center;verticalAlign=top;childLayout=stackLayout;horizontal=1;startSize=26;horizontalStack=0;resizeParent=1;resizeLast=0;collapsible=1;marginBottom=0;rounded=0;shadow=0;strokeWidth=1;" parent="WIyWlLk6GJQsqaUBKTNV-1" vertex="1">
          <mxGeometry x="319" y="501" width="373" height="138" as="geometry">
            <mxRectangle x="230" y="140" width="160" height="26" as="alternateBounds" />
          </mxGeometry>
        </mxCell>
        <mxCell id="GouWXUrFiB3hD5HciUw6-35" value="- logs [ map &amp;lt;id&amp;gt;,&amp;lt;Log*&amp;gt; ] &amp;lt;&amp;lt; get/set &amp;gt;&amp;gt;" style="text;html=1;resizable=0;autosize=1;align=left;verticalAlign=middle;points=[];fillColor=none;strokeColor=none;rounded=0;" parent="GouWXUrFiB3hD5HciUw6-32" vertex="1">
          <mxGeometry y="26" width="373" height="26" as="geometry" />
        </mxCell>
        <mxCell id="GouWXUrFiB3hD5HciUw6-36" value="" style="line;html=1;strokeWidth=1;align=left;verticalAlign=middle;spacingTop=-1;spacingLeft=3;spacingRight=3;rotatable=0;labelPosition=right;points=[];portConstraint=eastwest;" parent="GouWXUrFiB3hD5HciUw6-32" vertex="1">
          <mxGeometry y="52" width="373" height="8" as="geometry" />
        </mxCell>
        <mxCell id="5NJ1zF1r41b_Tl2I5SvM-0" value="- HistoricoDeLogs()" style="text;html=1;resizable=0;autosize=1;align=left;verticalAlign=middle;points=[];fillColor=none;strokeColor=none;rounded=0;" parent="GouWXUrFiB3hD5HciUw6-32" vertex="1">
          <mxGeometry y="60" width="373" height="26" as="geometry" />
        </mxCell>
        <mxCell id="QKy6g-BmtBENM2KowJZ9-2" value="+ [ HistoricoDeLogs* ] getInstanciaHistoricoDeLogs()" style="text;html=1;resizable=0;autosize=1;align=left;verticalAlign=middle;points=[];fillColor=none;strokeColor=none;rounded=0;" vertex="1" parent="GouWXUrFiB3hD5HciUw6-32">
          <mxGeometry y="86" width="373" height="26" as="geometry" />
        </mxCell>
        <mxCell id="GouWXUrFiB3hD5HciUw6-37" value="+ [ vector &amp;lt;Log*&amp;gt; ] listaLog ( dataInicial [ Data ], dataFinal [ Data ] )" style="text;html=1;resizable=0;autosize=1;align=left;verticalAlign=middle;points=[];fillColor=none;strokeColor=none;rounded=0;" parent="GouWXUrFiB3hD5HciUw6-32" vertex="1">
          <mxGeometry y="112" width="373" height="26" as="geometry" />
        </mxCell>
        <mxCell id="GouWXUrFiB3hD5HciUw6-39" value="1" style="text;html=1;resizable=0;autosize=1;align=center;verticalAlign=middle;points=[];fillColor=none;strokeColor=none;rounded=0;fontSize=24;" parent="WIyWlLk6GJQsqaUBKTNV-1" vertex="1">
          <mxGeometry x="1021" y="675" width="31" height="41" as="geometry" />
        </mxCell>
        <mxCell id="GouWXUrFiB3hD5HciUw6-40" value="1" style="text;html=1;resizable=0;autosize=1;align=center;verticalAlign=middle;points=[];fillColor=none;strokeColor=none;rounded=0;fontSize=24;" parent="WIyWlLk6GJQsqaUBKTNV-1" vertex="1">
          <mxGeometry x="1830" y="1465.5" width="31" height="41" as="geometry" />
        </mxCell>
        <mxCell id="GouWXUrFiB3hD5HciUw6-42" value="0...*" style="text;html=1;resizable=0;autosize=1;align=center;verticalAlign=middle;points=[];fillColor=none;strokeColor=none;rounded=0;fontSize=24;" parent="WIyWlLk6GJQsqaUBKTNV-1" vertex="1">
          <mxGeometry x="506" y="738" width="61" height="41" as="geometry" />
        </mxCell>
        <mxCell id="GouWXUrFiB3hD5HciUw6-43" value="1" style="text;html=1;resizable=0;autosize=1;align=center;verticalAlign=middle;points=[];fillColor=none;strokeColor=none;rounded=0;fontSize=24;" parent="WIyWlLk6GJQsqaUBKTNV-1" vertex="1">
          <mxGeometry x="513" y="639" width="31" height="41" as="geometry" />
        </mxCell>
        <mxCell id="YGI2oginyyZpjjxHaFJb-33" style="edgeStyle=orthogonalEdgeStyle;rounded=0;orthogonalLoop=1;jettySize=auto;html=1;endArrow=diamondThin;endFill=1;startSize=6;endSize=16;" parent="WIyWlLk6GJQsqaUBKTNV-1" source="YGI2oginyyZpjjxHaFJb-0" edge="1">
          <mxGeometry relative="1" as="geometry">
            <mxPoint x="2780" y="612" as="targetPoint" />
            <Array as="points">
              <mxPoint x="2890" y="612" />
              <mxPoint x="2890" y="612" />
            </Array>
          </mxGeometry>
        </mxCell>
        <mxCell id="YGI2oginyyZpjjxHaFJb-0" value="Orcamento" style="swimlane;fontStyle=0;align=center;verticalAlign=top;childLayout=stackLayout;horizontal=1;startSize=26;horizontalStack=0;resizeParent=1;resizeLast=0;collapsible=1;marginBottom=0;rounded=0;shadow=0;strokeWidth=1;" parent="WIyWlLk6GJQsqaUBKTNV-1" vertex="1">
          <mxGeometry x="2935" y="443" width="454" height="309" as="geometry">
            <mxRectangle x="130" y="380" width="160" height="26" as="alternateBounds" />
          </mxGeometry>
        </mxCell>
        <mxCell id="YGI2oginyyZpjjxHaFJb-1" value="&amp;nbsp;- cliente [ string ]&amp;nbsp;&amp;nbsp;&amp;lt;&amp;lt; get/set &amp;gt;&amp;gt;" style="text;html=1;resizable=0;autosize=1;align=left;verticalAlign=middle;points=[];fillColor=none;strokeColor=none;rounded=0;" parent="YGI2oginyyZpjjxHaFJb-0" vertex="1">
          <mxGeometry y="26" width="454" height="26" as="geometry" />
        </mxCell>
        <mxCell id="aJcXbw52B6p_eMawTVzu-3" value="&amp;nbsp;- cpfCnpj [ int ]&amp;nbsp;&amp;nbsp;&amp;lt;&amp;lt; get/set &amp;gt;&amp;gt;" style="text;html=1;resizable=0;autosize=1;align=left;verticalAlign=middle;points=[];fillColor=none;strokeColor=none;rounded=0;" parent="YGI2oginyyZpjjxHaFJb-0" vertex="1">
          <mxGeometry y="52" width="454" height="26" as="geometry" />
        </mxCell>
        <mxCell id="aJcXbw52B6p_eMawTVzu-4" value="&amp;nbsp;- email [ string ]&amp;nbsp;&amp;nbsp;&amp;lt;&amp;lt; get/set &amp;gt;&amp;gt;" style="text;html=1;resizable=0;autosize=1;align=left;verticalAlign=middle;points=[];fillColor=none;strokeColor=none;rounded=0;" parent="YGI2oginyyZpjjxHaFJb-0" vertex="1">
          <mxGeometry y="78" width="454" height="26" as="geometry" />
        </mxCell>
        <mxCell id="YGI2oginyyZpjjxHaFJb-6" value="- carrinho [ vector &lt;ItensDesejados*&gt; ] &lt;&lt; get/set &gt;&gt;" style="text;align=left;verticalAlign=top;spacingLeft=4;spacingRight=4;overflow=hidden;rotatable=0;points=[[0,0.5],[1,0.5]];portConstraint=eastwest;rounded=0;shadow=0;html=0;" parent="YGI2oginyyZpjjxHaFJb-0" vertex="1">
          <mxGeometry y="104" width="454" height="26" as="geometry" />
        </mxCell>
        <mxCell id="YGI2oginyyZpjjxHaFJb-7" value="- valorTotal [ float ] &lt;&lt; get/set &gt;&gt;" style="text;align=left;verticalAlign=top;spacingLeft=4;spacingRight=4;overflow=hidden;rotatable=0;points=[[0,0.5],[1,0.5]];portConstraint=eastwest;rounded=0;shadow=0;html=0;" parent="YGI2oginyyZpjjxHaFJb-0" vertex="1">
          <mxGeometry y="130" width="454" height="26" as="geometry" />
        </mxCell>
        <mxCell id="QpKap4qrNkChJTgVHYEr-2" value="- data [ Data ] &lt;&lt; get/set &gt;&gt;" style="text;align=left;verticalAlign=top;spacingLeft=4;spacingRight=4;overflow=hidden;rotatable=0;points=[[0,0.5],[1,0.5]];portConstraint=eastwest;rounded=0;shadow=0;html=0;" parent="YGI2oginyyZpjjxHaFJb-0" vertex="1">
          <mxGeometry y="156" width="454" height="26" as="geometry" />
        </mxCell>
        <mxCell id="QpKap4qrNkChJTgVHYEr-0" value="- pedido [ PedidoDeCompra ] &lt;&lt; get/set &gt;&gt;" style="text;align=left;verticalAlign=top;spacingLeft=4;spacingRight=4;overflow=hidden;rotatable=0;points=[[0,0.5],[1,0.5]];portConstraint=eastwest;rounded=0;shadow=0;html=0;" parent="YGI2oginyyZpjjxHaFJb-0" vertex="1">
          <mxGeometry y="182" width="454" height="26" as="geometry" />
        </mxCell>
        <mxCell id="YGI2oginyyZpjjxHaFJb-8" value="" style="line;html=1;strokeWidth=1;align=left;verticalAlign=middle;spacingTop=-1;spacingLeft=3;spacingRight=3;rotatable=0;labelPosition=right;points=[];portConstraint=eastwest;" parent="YGI2oginyyZpjjxHaFJb-0" vertex="1">
          <mxGeometry y="208" width="454" height="8" as="geometry" />
        </mxCell>
        <mxCell id="YGI2oginyyZpjjxHaFJb-10" value="+ [ bool ] verificaCompra(carrinho [ vector &amp;lt;ItensDesejados*&amp;gt; ])" style="text;html=1;resizable=0;autosize=1;align=left;verticalAlign=middle;points=[];fillColor=none;strokeColor=none;rounded=0;" parent="YGI2oginyyZpjjxHaFJb-0" vertex="1">
          <mxGeometry y="216" width="454" height="26" as="geometry" />
        </mxCell>
        <mxCell id="QpKap4qrNkChJTgVHYEr-1" value="+ [ void ] printaOrcamento()" style="text;html=1;resizable=0;autosize=1;align=left;verticalAlign=middle;points=[];fillColor=none;strokeColor=none;rounded=0;" parent="YGI2oginyyZpjjxHaFJb-0" vertex="1">
          <mxGeometry y="242" width="454" height="26" as="geometry" />
        </mxCell>
        <mxCell id="YGI2oginyyZpjjxHaFJb-52" value="+ [ PedidoDeCompra ] GerarPedidoDeCompra(itens [ vector &amp;lt;ItensDesejados*&amp;gt; ],&lt;br&gt;tipoPagamento [ string ], forma [ string ])" style="text;html=1;resizable=0;autosize=1;align=left;verticalAlign=middle;points=[];fillColor=none;strokeColor=none;rounded=0;" parent="YGI2oginyyZpjjxHaFJb-0" vertex="1">
          <mxGeometry y="268" width="454" height="41" as="geometry" />
        </mxCell>
        <mxCell id="YGI2oginyyZpjjxHaFJb-11" value="0...1" style="text;html=1;align=center;verticalAlign=middle;resizable=0;points=[];autosize=1;strokeColor=none;fillColor=none;fontSize=24;" parent="WIyWlLk6GJQsqaUBKTNV-1" vertex="1">
          <mxGeometry x="3462" y="518.75" width="65" height="41" as="geometry" />
        </mxCell>
        <mxCell id="YGI2oginyyZpjjxHaFJb-12" value="PedidoDeCompra" style="swimlane;fontStyle=0;align=center;verticalAlign=top;childLayout=stackLayout;horizontal=1;startSize=26;horizontalStack=0;resizeParent=1;resizeLast=0;collapsible=1;marginBottom=0;rounded=0;shadow=0;strokeWidth=1;" parent="WIyWlLk6GJQsqaUBKTNV-1" vertex="1">
          <mxGeometry x="3522" y="435" width="532" height="216" as="geometry">
            <mxRectangle x="130" y="380" width="160" height="26" as="alternateBounds" />
          </mxGeometry>
        </mxCell>
        <mxCell id="YGI2oginyyZpjjxHaFJb-13" value="&amp;nbsp;- registrosDeVenda [ vector &amp;lt;RegistroDeVenda*&amp;gt; ]&amp;nbsp;&amp;nbsp;&amp;lt;&amp;lt; get/set &amp;gt;&amp;gt;" style="text;html=1;resizable=0;autosize=1;align=left;verticalAlign=middle;points=[];fillColor=none;strokeColor=none;rounded=0;" parent="YGI2oginyyZpjjxHaFJb-12" vertex="1">
          <mxGeometry y="26" width="532" height="26" as="geometry" />
        </mxCell>
        <mxCell id="8BmFFcGWBo3LBBt_KWP1-2" value="&amp;nbsp;- registrosDePagamento [ auto ]&amp;nbsp;&amp;nbsp;&amp;lt;&amp;lt; get/set &amp;gt;&amp;gt;" style="text;html=1;resizable=0;autosize=1;align=left;verticalAlign=middle;points=[];fillColor=none;strokeColor=none;rounded=0;" parent="YGI2oginyyZpjjxHaFJb-12" vertex="1">
          <mxGeometry y="52" width="532" height="26" as="geometry" />
        </mxCell>
        <mxCell id="YGI2oginyyZpjjxHaFJb-14" value="- dataPedido [ Data ] &lt;&lt; get/set &gt;&gt;" style="text;align=left;verticalAlign=top;spacingLeft=4;spacingRight=4;overflow=hidden;rotatable=0;points=[[0,0.5],[1,0.5]];portConstraint=eastwest;" parent="YGI2oginyyZpjjxHaFJb-12" vertex="1">
          <mxGeometry y="78" width="532" height="26" as="geometry" />
        </mxCell>
        <mxCell id="YGI2oginyyZpjjxHaFJb-15" value="- valorDaCompra [ float ] &lt;&lt; get/set &gt;&gt;" style="text;align=left;verticalAlign=top;spacingLeft=4;spacingRight=4;overflow=hidden;rotatable=0;points=[[0,0.5],[1,0.5]];portConstraint=eastwest;rounded=0;shadow=0;html=0;" parent="YGI2oginyyZpjjxHaFJb-12" vertex="1">
          <mxGeometry y="104" width="532" height="26" as="geometry" />
        </mxCell>
        <mxCell id="YGI2oginyyZpjjxHaFJb-20" value="" style="line;html=1;strokeWidth=1;align=left;verticalAlign=middle;spacingTop=-1;spacingLeft=3;spacingRight=3;rotatable=0;labelPosition=right;points=[];portConstraint=eastwest;" parent="YGI2oginyyZpjjxHaFJb-12" vertex="1">
          <mxGeometry y="130" width="532" height="8" as="geometry" />
        </mxCell>
        <mxCell id="QpKap4qrNkChJTgVHYEr-5" value="&amp;nbsp;- [ void ] registraPagamento(tipoPagamento [ string ], forma [ string ])&amp;nbsp;" style="text;html=1;resizable=0;autosize=1;align=left;verticalAlign=middle;points=[];fillColor=none;strokeColor=none;rounded=0;" parent="YGI2oginyyZpjjxHaFJb-12" vertex="1">
          <mxGeometry y="138" width="532" height="26" as="geometry" />
        </mxCell>
        <mxCell id="YGI2oginyyZpjjxHaFJb-21" value="+ [ vector &amp;lt;RegistroDeVenda&amp;gt; ] executaCompra(idProduto [ int ], quantidade [ int ])" style="text;html=1;resizable=0;autosize=1;align=left;verticalAlign=middle;points=[];fillColor=none;strokeColor=none;rounded=0;" parent="YGI2oginyyZpjjxHaFJb-12" vertex="1">
          <mxGeometry y="164" width="532" height="26" as="geometry" />
        </mxCell>
        <mxCell id="8BmFFcGWBo3LBBt_KWP1-3" value="+ [ void ] printaCompra()" style="text;html=1;resizable=0;autosize=1;align=left;verticalAlign=middle;points=[];fillColor=none;strokeColor=none;rounded=0;" parent="YGI2oginyyZpjjxHaFJb-12" vertex="1">
          <mxGeometry y="190" width="532" height="26" as="geometry" />
        </mxCell>
        <mxCell id="YGI2oginyyZpjjxHaFJb-31" style="edgeStyle=orthogonalEdgeStyle;rounded=0;orthogonalLoop=1;jettySize=auto;html=1;endArrow=diamondThin;endFill=1;startSize=6;endSize=16;" parent="WIyWlLk6GJQsqaUBKTNV-1" edge="1">
          <mxGeometry relative="1" as="geometry">
            <mxPoint x="3522" y="565" as="sourcePoint" />
            <mxPoint x="3389" y="564.75" as="targetPoint" />
            <Array as="points">
              <mxPoint x="3474" y="564.75" />
              <mxPoint x="3474" y="564.75" />
            </Array>
          </mxGeometry>
        </mxCell>
        <mxCell id="YGI2oginyyZpjjxHaFJb-32" value="1" style="text;html=1;align=center;verticalAlign=middle;resizable=0;points=[];autosize=1;strokeColor=none;fillColor=none;fontSize=24;" parent="WIyWlLk6GJQsqaUBKTNV-1" vertex="1">
          <mxGeometry x="3387" y="517.25" width="31" height="41" as="geometry" />
        </mxCell>
        <mxCell id="YGI2oginyyZpjjxHaFJb-49" style="edgeStyle=orthogonalEdgeStyle;rounded=0;orthogonalLoop=1;jettySize=auto;html=1;endArrow=diamondThin;endFill=1;startSize=6;endSize=16;entryX=0.465;entryY=1.049;entryDx=0;entryDy=0;entryPerimeter=0;" parent="WIyWlLk6GJQsqaUBKTNV-1" source="YGI2oginyyZpjjxHaFJb-35" target="YGI2oginyyZpjjxHaFJb-52" edge="1">
          <mxGeometry relative="1" as="geometry">
            <mxPoint x="3145" y="765" as="targetPoint" />
            <Array as="points">
              <mxPoint x="3147" y="810" />
              <mxPoint x="3146" y="810" />
            </Array>
          </mxGeometry>
        </mxCell>
        <mxCell id="YGI2oginyyZpjjxHaFJb-35" value="ItensDesejados" style="swimlane;fontStyle=0;align=center;verticalAlign=top;childLayout=stackLayout;horizontal=1;startSize=26;horizontalStack=0;resizeParent=1;resizeLast=0;collapsible=1;marginBottom=0;rounded=0;shadow=0;strokeWidth=1;" parent="WIyWlLk6GJQsqaUBKTNV-1" vertex="1">
          <mxGeometry x="2935" y="857" width="419" height="249" as="geometry">
            <mxRectangle x="130" y="380" width="160" height="26" as="alternateBounds" />
          </mxGeometry>
        </mxCell>
        <mxCell id="8BmFFcGWBo3LBBt_KWP1-0" value="&amp;nbsp;- Produto [ string ] &amp;lt;&amp;lt; get/set &amp;gt;&amp;gt;" style="text;html=1;resizable=0;autosize=1;align=left;verticalAlign=middle;points=[];fillColor=none;strokeColor=none;rounded=0;" parent="YGI2oginyyZpjjxHaFJb-35" vertex="1">
          <mxGeometry y="26" width="419" height="26" as="geometry" />
        </mxCell>
        <mxCell id="YGI2oginyyZpjjxHaFJb-36" value="&amp;nbsp;- idProduto [ int ] &amp;lt;&amp;lt; get/set &amp;gt;&amp;gt;" style="text;html=1;resizable=0;autosize=1;align=left;verticalAlign=middle;points=[];fillColor=none;strokeColor=none;rounded=0;" parent="YGI2oginyyZpjjxHaFJb-35" vertex="1">
          <mxGeometry y="52" width="419" height="26" as="geometry" />
        </mxCell>
        <mxCell id="YGI2oginyyZpjjxHaFJb-37" value="- precoUnitario [ float ] &lt;&lt; get/set &gt;&gt;" style="text;align=left;verticalAlign=top;spacingLeft=4;spacingRight=4;overflow=hidden;rotatable=0;points=[[0,0.5],[1,0.5]];portConstraint=eastwest;" parent="YGI2oginyyZpjjxHaFJb-35" vertex="1">
          <mxGeometry y="78" width="419" height="26" as="geometry" />
        </mxCell>
        <mxCell id="YGI2oginyyZpjjxHaFJb-38" value="- quantidade [ int ] &lt;&lt; get/set &gt;&gt;" style="text;align=left;verticalAlign=top;spacingLeft=4;spacingRight=4;overflow=hidden;rotatable=0;points=[[0,0.5],[1,0.5]];portConstraint=eastwest;rounded=0;shadow=0;html=0;" parent="YGI2oginyyZpjjxHaFJb-35" vertex="1">
          <mxGeometry y="104" width="419" height="26" as="geometry" />
        </mxCell>
        <mxCell id="YGI2oginyyZpjjxHaFJb-51" value="- valorTotal [ float ] &lt;&lt; get/set &gt;&gt;" style="text;align=left;verticalAlign=top;spacingLeft=4;spacingRight=4;overflow=hidden;rotatable=0;points=[[0,0.5],[1,0.5]];portConstraint=eastwest;rounded=0;shadow=0;html=0;" parent="YGI2oginyyZpjjxHaFJb-35" vertex="1">
          <mxGeometry y="130" width="419" height="26" as="geometry" />
        </mxCell>
        <mxCell id="YGI2oginyyZpjjxHaFJb-39" value="- disponibilidade [ bool ] &lt;&lt; get/set &gt;&gt;" style="text;align=left;verticalAlign=top;spacingLeft=4;spacingRight=4;overflow=hidden;rotatable=0;points=[[0,0.5],[1,0.5]];portConstraint=eastwest;rounded=0;shadow=0;html=0;" parent="YGI2oginyyZpjjxHaFJb-35" vertex="1">
          <mxGeometry y="156" width="419" height="26" as="geometry" />
        </mxCell>
        <mxCell id="YGI2oginyyZpjjxHaFJb-40" value="" style="line;html=1;strokeWidth=1;align=left;verticalAlign=middle;spacingTop=-1;spacingLeft=3;spacingRight=3;rotatable=0;labelPosition=right;points=[];portConstraint=eastwest;" parent="YGI2oginyyZpjjxHaFJb-35" vertex="1">
          <mxGeometry y="182" width="419" height="8" as="geometry" />
        </mxCell>
        <mxCell id="8BmFFcGWBo3LBBt_KWP1-1" value="&amp;nbsp;-&amp;nbsp; [ float ] calculaCompra(precoUnitario [ float ], quantidade [ int ])" style="text;html=1;resizable=0;autosize=1;align=left;verticalAlign=middle;points=[];fillColor=none;strokeColor=none;rounded=0;" parent="YGI2oginyyZpjjxHaFJb-35" vertex="1">
          <mxGeometry y="190" width="419" height="26" as="geometry" />
        </mxCell>
        <mxCell id="YGI2oginyyZpjjxHaFJb-50" value="&amp;nbsp;-&amp;nbsp; [ bool ] verificaDisponibilidade(idProduto [ int ])" style="text;html=1;resizable=0;autosize=1;align=left;verticalAlign=middle;points=[];fillColor=none;strokeColor=none;rounded=0;" parent="YGI2oginyyZpjjxHaFJb-35" vertex="1">
          <mxGeometry y="216" width="419" height="26" as="geometry" />
        </mxCell>
        <mxCell id="YGI2oginyyZpjjxHaFJb-53" value="&lt;span style=&quot;font-size: 24px;&quot;&gt;0...*&lt;/span&gt;" style="text;html=1;align=center;verticalAlign=middle;resizable=0;points=[];autosize=1;strokeColor=none;fillColor=none;" parent="WIyWlLk6GJQsqaUBKTNV-1" vertex="1">
          <mxGeometry x="2883" y="572.5" width="61" height="41" as="geometry" />
        </mxCell>
        <mxCell id="YGI2oginyyZpjjxHaFJb-54" value="&lt;span style=&quot;font-size: 24px;&quot;&gt;1&lt;/span&gt;" style="text;html=1;align=center;verticalAlign=middle;resizable=0;points=[];autosize=1;strokeColor=none;fillColor=none;" parent="WIyWlLk6GJQsqaUBKTNV-1" vertex="1">
          <mxGeometry x="2773" y="572.5" width="31" height="41" as="geometry" />
        </mxCell>
        <mxCell id="YGI2oginyyZpjjxHaFJb-56" value="0...*" style="text;html=1;align=center;verticalAlign=middle;resizable=0;points=[];autosize=1;strokeColor=none;fillColor=none;fontSize=24;" parent="WIyWlLk6GJQsqaUBKTNV-1" vertex="1">
          <mxGeometry x="3147" y="816.5" width="61" height="41" as="geometry" />
        </mxCell>
        <mxCell id="YGI2oginyyZpjjxHaFJb-57" value="1" style="text;html=1;align=center;verticalAlign=middle;resizable=0;points=[];autosize=1;strokeColor=none;fillColor=none;fontSize=24;" parent="WIyWlLk6GJQsqaUBKTNV-1" vertex="1">
          <mxGeometry x="3146.5" y="748" width="31" height="41" as="geometry" />
        </mxCell>
        <mxCell id="QpKap4qrNkChJTgVHYEr-28" style="edgeStyle=orthogonalEdgeStyle;rounded=0;orthogonalLoop=1;jettySize=auto;html=1;endArrow=diamondThin;endFill=1;startSize=6;endSize=16;" parent="WIyWlLk6GJQsqaUBKTNV-1" source="QpKap4qrNkChJTgVHYEr-8" edge="1">
          <mxGeometry relative="1" as="geometry">
            <mxPoint x="4058" y="531" as="targetPoint" />
            <Array as="points">
              <mxPoint x="4089" y="531" />
            </Array>
          </mxGeometry>
        </mxCell>
        <mxCell id="QpKap4qrNkChJTgVHYEr-8" value="PagamentoAbstrata" style="swimlane;fontStyle=0;align=center;verticalAlign=top;childLayout=stackLayout;horizontal=1;startSize=26;horizontalStack=0;resizeParent=1;resizeLast=0;collapsible=1;marginBottom=0;rounded=0;shadow=0;strokeWidth=1;" parent="WIyWlLk6GJQsqaUBKTNV-1" vertex="1">
          <mxGeometry x="4264" y="480" width="249" height="111" as="geometry">
            <mxRectangle x="230" y="140" width="160" height="26" as="alternateBounds" />
          </mxGeometry>
        </mxCell>
        <mxCell id="QpKap4qrNkChJTgVHYEr-10" value="- data [ Data ] &amp;lt;&amp;lt; get/set &amp;gt;&amp;gt;" style="text;html=1;resizable=0;autosize=1;align=left;verticalAlign=middle;points=[];fillColor=none;strokeColor=none;rounded=0;" parent="QpKap4qrNkChJTgVHYEr-8" vertex="1">
          <mxGeometry y="26" width="249" height="26" as="geometry" />
        </mxCell>
        <mxCell id="QpKap4qrNkChJTgVHYEr-11" value="- valorAPagar [ float ] &amp;lt;&amp;lt; get/set &amp;gt;&amp;gt;" style="text;html=1;resizable=0;autosize=1;align=left;verticalAlign=middle;points=[];fillColor=none;strokeColor=none;rounded=0;" parent="QpKap4qrNkChJTgVHYEr-8" vertex="1">
          <mxGeometry y="52" width="249" height="26" as="geometry" />
        </mxCell>
        <mxCell id="QpKap4qrNkChJTgVHYEr-12" value="" style="line;html=1;strokeWidth=1;align=left;verticalAlign=middle;spacingTop=-1;spacingLeft=3;spacingRight=3;rotatable=0;labelPosition=right;points=[];portConstraint=eastwest;" parent="QpKap4qrNkChJTgVHYEr-8" vertex="1">
          <mxGeometry y="78" width="249" height="8" as="geometry" />
        </mxCell>
        <mxCell id="g_R-oFrSZc-OR2lf2fH1-0" style="edgeStyle=orthogonalEdgeStyle;rounded=0;orthogonalLoop=1;jettySize=auto;html=1;endArrow=block;endFill=0;endSize=16;" parent="WIyWlLk6GJQsqaUBKTNV-1" source="QpKap4qrNkChJTgVHYEr-19" edge="1">
          <mxGeometry relative="1" as="geometry">
            <mxPoint x="4275.294117647059" y="592.1735294117647" as="targetPoint" />
            <Array as="points">
              <mxPoint x="4275" y="658.35" />
              <mxPoint x="4275" y="658.35" />
            </Array>
          </mxGeometry>
        </mxCell>
        <mxCell id="QpKap4qrNkChJTgVHYEr-19" value="Boleto" style="swimlane;fontStyle=0;align=center;verticalAlign=top;childLayout=stackLayout;horizontal=1;startSize=26;horizontalStack=0;resizeParent=1;resizeLast=0;collapsible=1;marginBottom=0;rounded=0;shadow=0;strokeWidth=1;" parent="WIyWlLk6GJQsqaUBKTNV-1" vertex="1">
          <mxGeometry x="4236" y="692.35" width="305" height="84" as="geometry">
            <mxRectangle x="230" y="140" width="160" height="26" as="alternateBounds" />
          </mxGeometry>
        </mxCell>
        <mxCell id="QpKap4qrNkChJTgVHYEr-20" value="- periodo [ enum(&#39;30&#39; | &#39;60&#39; | &#39;90&#39;) ] &amp;lt;&amp;lt; get/set &amp;gt;&amp;gt;" style="text;html=1;resizable=0;autosize=1;align=left;verticalAlign=middle;points=[];fillColor=none;strokeColor=none;rounded=0;" parent="QpKap4qrNkChJTgVHYEr-19" vertex="1">
          <mxGeometry y="26" width="305" height="26" as="geometry" />
        </mxCell>
        <mxCell id="QpKap4qrNkChJTgVHYEr-22" value="" style="line;html=1;strokeWidth=1;align=left;verticalAlign=middle;spacingTop=-1;spacingLeft=3;spacingRight=3;rotatable=0;labelPosition=right;points=[];portConstraint=eastwest;" parent="QpKap4qrNkChJTgVHYEr-19" vertex="1">
          <mxGeometry y="52" width="305" height="8" as="geometry" />
        </mxCell>
        <mxCell id="g_R-oFrSZc-OR2lf2fH1-1" style="edgeStyle=orthogonalEdgeStyle;rounded=0;orthogonalLoop=1;jettySize=auto;html=1;endArrow=block;endFill=0;endSize=16;" parent="WIyWlLk6GJQsqaUBKTNV-1" source="QpKap4qrNkChJTgVHYEr-24" edge="1">
          <mxGeometry relative="1" as="geometry">
            <mxPoint x="4302.352941176471" y="590.9970588235295" as="targetPoint" />
            <Array as="points">
              <mxPoint x="4618" y="671.35" />
              <mxPoint x="4302" y="671.35" />
            </Array>
          </mxGeometry>
        </mxCell>
        <mxCell id="QpKap4qrNkChJTgVHYEr-24" value="Credito" style="swimlane;fontStyle=0;align=center;verticalAlign=top;childLayout=stackLayout;horizontal=1;startSize=26;horizontalStack=0;resizeParent=1;resizeLast=0;collapsible=1;marginBottom=0;rounded=0;shadow=0;strokeWidth=1;" parent="WIyWlLk6GJQsqaUBKTNV-1" vertex="1">
          <mxGeometry x="4581" y="692.35" width="272" height="103" as="geometry">
            <mxRectangle x="230" y="140" width="160" height="26" as="alternateBounds" />
          </mxGeometry>
        </mxCell>
        <mxCell id="QpKap4qrNkChJTgVHYEr-25" value="- parcelamento [ enum(&#39;A VISTA&#39; | &#39;x1&#39;&amp;nbsp;| &#39;x2&#39;&amp;nbsp;| &#39;x3&#39;&lt;br&gt;&amp;nbsp;| &#39;x4&#39;&amp;nbsp;&amp;nbsp;| &#39;x5&#39;&amp;nbsp;&amp;nbsp;| &#39;x6&#39;)" style="text;html=1;resizable=0;autosize=1;align=left;verticalAlign=middle;points=[];fillColor=none;strokeColor=none;rounded=0;" parent="QpKap4qrNkChJTgVHYEr-24" vertex="1">
          <mxGeometry y="26" width="272" height="41" as="geometry" />
        </mxCell>
        <mxCell id="QpKap4qrNkChJTgVHYEr-26" value="" style="line;html=1;strokeWidth=1;align=left;verticalAlign=middle;spacingTop=-1;spacingLeft=3;spacingRight=3;rotatable=0;labelPosition=right;points=[];portConstraint=eastwest;" parent="QpKap4qrNkChJTgVHYEr-24" vertex="1">
          <mxGeometry y="67" width="272" height="8" as="geometry" />
        </mxCell>
        <mxCell id="QpKap4qrNkChJTgVHYEr-29" value="1" style="text;html=1;align=center;verticalAlign=middle;resizable=0;points=[];autosize=1;strokeColor=none;fillColor=none;fontSize=24;" parent="WIyWlLk6GJQsqaUBKTNV-1" vertex="1">
          <mxGeometry x="4051" y="488" width="31" height="41" as="geometry" />
        </mxCell>
        <mxCell id="QpKap4qrNkChJTgVHYEr-30" value="1" style="text;html=1;align=center;verticalAlign=middle;resizable=0;points=[];autosize=1;strokeColor=none;fillColor=none;fontSize=24;" parent="WIyWlLk6GJQsqaUBKTNV-1" vertex="1">
          <mxGeometry x="4230" y="489" width="31" height="41" as="geometry" />
        </mxCell>
        <mxCell id="QpKap4qrNkChJTgVHYEr-34" value="1" style="text;html=1;align=center;verticalAlign=middle;resizable=0;points=[];autosize=1;strokeColor=none;fillColor=none;fontSize=24;" parent="WIyWlLk6GJQsqaUBKTNV-1" vertex="1">
          <mxGeometry x="3738" y="657" width="31" height="41" as="geometry" />
        </mxCell>
        <mxCell id="QpKap4qrNkChJTgVHYEr-36" value="0...1" style="text;html=1;align=center;verticalAlign=middle;resizable=0;points=[];autosize=1;strokeColor=none;fillColor=none;fontSize=24;" parent="WIyWlLk6GJQsqaUBKTNV-1" vertex="1">
          <mxGeometry x="3721" y="704" width="65" height="41" as="geometry" />
        </mxCell>
        <mxCell id="aJcXbw52B6p_eMawTVzu-0" style="edgeStyle=orthogonalEdgeStyle;rounded=0;orthogonalLoop=1;jettySize=auto;html=1;exitX=-0.007;exitY=-0.269;exitDx=0;exitDy=0;exitPerimeter=0;endArrow=open;endFill=0;endSize=16;entryX=1.001;entryY=0.154;entryDx=0;entryDy=0;entryPerimeter=0;" parent="WIyWlLk6GJQsqaUBKTNV-1" source="YGI2oginyyZpjjxHaFJb-51" target="zTteDzw6mhybtIft6KNz-38" edge="1">
          <mxGeometry relative="1" as="geometry">
            <mxPoint x="2864" y="1116" as="sourcePoint" />
            <mxPoint x="2326" y="1383" as="targetPoint" />
            <Array as="points">
              <mxPoint x="2615" y="980" />
              <mxPoint x="2615" y="1383" />
              <mxPoint x="2294" y="1383" />
            </Array>
          </mxGeometry>
        </mxCell>
        <mxCell id="aJcXbw52B6p_eMawTVzu-1" value="1" style="text;html=1;align=center;verticalAlign=middle;resizable=0;points=[];autosize=1;strokeColor=none;fillColor=none;fontSize=24;" parent="WIyWlLk6GJQsqaUBKTNV-1" vertex="1">
          <mxGeometry x="2291" y="1340" width="31" height="41" as="geometry" />
        </mxCell>
        <mxCell id="aJcXbw52B6p_eMawTVzu-2" value="0...*" style="text;html=1;align=center;verticalAlign=middle;resizable=0;points=[];autosize=1;strokeColor=none;fillColor=none;fontSize=24;" parent="WIyWlLk6GJQsqaUBKTNV-1" vertex="1">
          <mxGeometry x="2874" y="937" width="61" height="41" as="geometry" />
        </mxCell>
        <mxCell id="aJcXbw52B6p_eMawTVzu-13" value="1" style="text;html=1;resizable=0;autosize=1;align=center;verticalAlign=middle;points=[];fillColor=none;strokeColor=none;rounded=0;fontSize=24;" parent="WIyWlLk6GJQsqaUBKTNV-1" vertex="1">
          <mxGeometry x="863" y="542" width="31" height="41" as="geometry" />
        </mxCell>
        <mxCell id="aJcXbw52B6p_eMawTVzu-14" value="1" style="text;html=1;resizable=0;autosize=1;align=center;verticalAlign=middle;points=[];fillColor=none;strokeColor=none;rounded=0;fontSize=24;" parent="WIyWlLk6GJQsqaUBKTNV-1" vertex="1">
          <mxGeometry x="681" y="542" width="31" height="41" as="geometry" />
        </mxCell>
        <mxCell id="aJcXbw52B6p_eMawTVzu-19" value="1" style="text;html=1;align=center;verticalAlign=middle;resizable=0;points=[];autosize=1;strokeColor=none;fillColor=none;fontSize=24;" parent="WIyWlLk6GJQsqaUBKTNV-1" vertex="1">
          <mxGeometry x="2291" y="1400" width="31" height="41" as="geometry" />
        </mxCell>
        <mxCell id="aJcXbw52B6p_eMawTVzu-20" value="0...*" style="text;html=1;align=center;verticalAlign=middle;resizable=0;points=[];autosize=1;strokeColor=none;fillColor=none;fontSize=24;" parent="WIyWlLk6GJQsqaUBKTNV-1" vertex="1">
          <mxGeometry x="3725" y="1036.8600000000001" width="61" height="41" as="geometry" />
        </mxCell>
      </root>
    </mxGraphModel>
  </diagram>
</mxfile>
